<svg width="31" height="12" viewBox="0 0 31 12" fill="none" xmlns="http://www.w3.org/2000/svg">
<g id="Frame" clip-path="url(#clip0_255_1549)">
<g id="Group">
<path id="Vector" d="M30.2643 1.3668C30.2643 1.3668 31.6654 7.26059 26.4375 7.49564H0.569092" stroke="#D4A02E" stroke-width="1.3" stroke-miterlimit="10" stroke-linecap="round"/>
<g id="Group_2">
<path id="Vector_2" d="M13.3019 14.9478C13.0567 14.26 12.9428 13.5723 12.7151 12.9106C12.54 12.249 12.3298 11.6222 12.0846 11.0389C11.8219 10.473 11.5504 9.92455 11.1739 9.48056C10.8236 9.01915 10.412 8.6448 9.9479 8.40104L8.65186 7.722L9.77276 6.75566C10.6923 5.96344 11.4366 4.95357 12.0321 3.83923C12.3211 3.27336 12.5838 2.68137 12.7764 2.05455C13.0216 1.42774 13.1267 0.766104 13.2668 0.0609389V0.0435274C13.2756 0.0174102 13.3106 -0.00870708 13.3369 -1.33133e-06C13.3632 0.00870441 13.3807 0.0261159 13.3807 0.0435274C13.7134 2.81195 12.6276 5.71967 10.5259 7.60011L10.5084 7.426C11.7694 8.14858 12.5575 9.45444 12.9428 10.7864C13.3369 12.1445 13.3719 13.5548 13.4069 14.9391C13.4069 14.9739 13.3807 14.9913 13.3544 15C13.3281 15 13.3106 14.9826 13.3019 14.9652V14.9478Z" fill="#D4A02E"/>
</g>
<g id="Group_3">
<path id="Vector_3" d="M9.21226 14.9478C8.96706 14.26 8.85322 13.5723 8.62553 12.9106C8.45039 12.249 8.24022 11.6222 7.99502 11.0389C7.73231 10.473 7.46084 9.92455 7.08429 9.48056C6.73401 9.01915 6.32243 8.6448 5.8583 8.40104L4.56226 7.722L5.69192 6.76436C6.61141 5.97214 7.35576 4.96227 7.95124 3.83923C8.24022 3.28206 8.49418 2.68137 8.69559 2.05455C8.94079 1.42774 9.04587 0.766104 9.18598 0.0609389V0.0435274C9.19474 0.0174102 9.22101 -0.00870708 9.25604 -1.33133e-06C9.28231 0.00870441 9.29983 0.0261159 9.29983 0.0435274C9.63259 2.82066 8.54672 5.71967 6.44502 7.60882L6.42751 7.426C7.68853 8.14858 8.47666 9.45444 8.86197 10.7864C9.25604 12.1445 9.29107 13.5548 9.3261 14.9391C9.3261 14.9739 9.29983 14.9913 9.27356 15C9.24728 15 9.22977 14.9826 9.22101 14.9652L9.21226 14.9478Z" fill="#D4A02E"/>
</g>
</g>
</g>
<defs>
<clipPath id="clip0_255_1549">
<rect width="31" height="15" fill="white"/>
</clipPath>
</defs>
</svg>
