<svg width="24" height="20" viewBox="0 0 24 20" fill="none" xmlns="http://www.w3.org/2000/svg">
<g id="Frame">
<g id="Group">
<path id="Layer 2" d="M18.2565 10.5263C18.2587 9.80545 18.0979 9.09136 17.7832 8.42543C17.4686 7.75949 17.0064 7.15495 16.4235 6.64684C16.3403 6.57384 16.2414 6.51593 16.1327 6.47642C16.024 6.43691 15.9074 6.41657 15.7897 6.41657C15.672 6.41657 15.5555 6.43691 15.4467 6.47642C15.338 6.51593 15.2392 6.57384 15.156 6.64684C15.0728 6.71985 15.0067 6.80651 14.9617 6.9019C14.9167 6.99728 14.8935 7.09952 14.8935 7.20276C14.8935 7.30601 14.9167 7.40824 14.9617 7.50363C15.0067 7.59901 15.0728 7.68568 15.156 7.75868C15.9939 8.49375 16.4646 9.49067 16.4646 10.5302C16.4646 11.5697 15.9939 12.5666 15.156 13.3016C14.9879 13.4491 14.8935 13.6491 14.8935 13.8576C14.8935 14.0661 14.9879 14.266 15.156 14.4135C15.3241 14.5609 15.552 14.6438 15.7897 14.6438C16.0274 14.6438 16.2554 14.5609 16.4235 14.4135C17.0074 13.9044 17.4702 13.2986 17.7849 12.6313C18.0995 11.964 18.2598 11.2485 18.2565 10.5263ZM19.5835 17.1794C19.4154 17.3268 19.1874 17.4097 18.9497 17.4097C18.712 17.4097 18.484 17.3268 18.316 17.1794C18.1479 17.032 18.0534 16.832 18.0534 16.6235C18.0534 16.415 18.1479 16.215 18.316 16.0676C19.9921 14.5972 20.9337 12.6031 20.9337 10.5237C20.9337 8.44442 19.9921 6.45025 18.316 4.97993C18.1479 4.83249 18.0534 4.63252 18.0534 4.42401C18.0534 4.2155 18.1479 4.01553 18.316 3.86809C18.484 3.72065 18.712 3.63782 18.9497 3.63782C19.1874 3.63782 19.4154 3.72065 19.5835 3.86809C20.5795 4.7417 21.3695 5.77886 21.9086 6.92033C22.4476 8.0618 22.725 9.28523 22.725 10.5208C22.725 11.7563 22.4476 12.9797 21.9086 14.1212C21.3695 15.2627 20.5795 16.2998 19.5835 17.1734V17.1794ZM12.4465 19.1465V1.9027C12.4465 1.74995 12.3956 1.60053 12.3001 1.47278C12.2047 1.34504 12.0688 1.24452 11.9091 1.18357C11.7495 1.12262 11.573 1.1039 11.4013 1.12971C11.2297 1.15551 11.0704 1.22471 10.943 1.32882L4.49728 6.60664H2.16898C2.05153 6.60653 1.93521 6.62674 1.82668 6.66611C1.71815 6.70549 1.61953 6.76325 1.53649 6.8361C1.45344 6.90895 1.38758 6.99545 1.3427 7.09066C1.29781 7.18586 1.27477 7.2879 1.2749 7.39092V13.6626C1.27477 13.7656 1.29781 13.8676 1.3427 13.9628C1.38758 14.058 1.45344 14.1445 1.53649 14.2174C1.61953 14.2902 1.71815 14.348 1.82668 14.3874C1.93521 14.4267 2.05153 14.447 2.16898 14.4468H4.49728L10.943 19.7238C11.0704 19.8279 11.2296 19.8971 11.4011 19.9229C11.5726 19.9487 11.749 19.9301 11.9087 19.8692C12.0683 19.8084 12.2042 19.708 12.2997 19.5804C12.3953 19.4528 12.4463 19.3035 12.4465 19.1508V19.1465ZM10.6593 17.347L5.4596 13.0921C5.29407 12.957 5.07636 12.8818 4.85023 12.8817H3.06208V8.17776H4.85023C5.07752 8.17625 5.29555 8.09853 5.4596 7.96053L10.6593 3.70302V17.347Z" fill="#E7B133"/>
</g>
</g>
</svg>
