<svg width="37" height="48" viewBox="0 0 37 48" fill="none" xmlns="http://www.w3.org/2000/svg">
<g clip-path="url(#clip0_199_437)">
<path d="M25.5396 23.4876C31.5588 23.4876 36.4384 18.5517 36.4384 12.4628C36.4384 6.374 31.5588 1.43803 25.5396 1.43803C19.5203 1.43803 14.6407 6.374 14.6407 12.4628C14.6407 18.5517 19.5203 23.4876 25.5396 23.4876Z" fill="#F4931E"/>
<path d="M8.89578 46.6392C6.10973 43.6631 5.18822 40.1285 5.35136 36.2222C5.46431 33.5019 6.12945 30.9629 7.58881 28.647C9.02691 26.3229 11.2262 24.5835 13.8027 23.7323C14.3101 23.551 14.83 23.4149 15.3302 23.2227C16.691 22.704 17.4439 21.6014 17.4816 20.1216C17.5013 19.2148 17.4529 18.308 17.5587 17.4284C17.7083 16.1409 18.2757 14.9399 19.1722 14.0135C19.8069 13.3353 20.2336 12.4611 20.8037 11.714C21.3738 10.9668 22.039 10.2359 22.6593 9.50145L22.7937 9.57943V11.3222L23.5109 10.3955C23.5557 11.0031 23.5862 11.471 23.6256 11.9388C23.7099 12.9127 23.7242 12.9327 24.635 13.2083C25.1465 13.3491 25.6178 13.6105 26.0101 13.9712C26.4025 14.3318 26.7047 14.7814 26.8921 15.283C27.0965 15.7854 27.5447 16.2025 27.9392 16.6015C28.2135 16.8808 28.321 17.1328 28.1812 17.5082C28.027 17.9127 27.9105 18.3334 27.7419 18.7306C27.6203 19.0509 27.4134 19.3309 27.1441 19.5396C26.8748 19.7483 26.5537 19.8776 26.2162 19.913C25.431 20.0272 24.9846 20.4734 24.9864 21.2858C24.9864 21.9206 25.1656 22.5553 25.3091 23.1864C25.4144 23.5111 25.557 23.8221 25.734 24.1132C26.6304 25.8904 26.5927 27.7094 25.9132 29.5248C25.5547 30.4787 25.0814 31.3873 24.6583 32.314C23.5145 34.7804 23.4033 37.381 23.7619 40.0179C23.9239 41.0271 24.1539 42.0238 24.4503 43.0012C24.8089 44.2888 25.6748 45.0396 26.9764 45.2772C28.8625 45.62 30.6499 45.3788 32.2563 44.2689C33.2352 43.5942 33.8411 42.6766 33.7659 41.4144C33.7192 40.6273 33.1168 39.8837 32.4105 39.7187C31.6037 39.5373 31.0013 40.0342 31.0426 40.8612C31.0712 41.4434 30.883 41.8188 30.4599 42.0128C30.2284 42.1209 29.9689 42.1512 29.7192 42.0993C29.4695 42.0474 29.2428 41.9161 29.0722 41.7245C28.4573 41.0915 28.4376 40.3389 28.6904 39.5591C29.4075 37.3212 32.2437 36.4017 34.2894 37.7274C35.9656 38.8155 36.715 40.9446 36.1378 43.0556C35.4206 45.6744 33.5435 47.0454 31.073 47.662C30.0416 47.8991 28.986 48.0117 27.9284 47.9975C17.5121 48.0277 11.1225 47.9127 0.706211 47.9066C0.553582 47.9154 0.400478 47.9038 0.250834 47.8722C0.0930678 47.8444 -0.0490239 47.7587 -0.148255 47.6315C-0.247487 47.5044 -0.29689 47.3447 -0.287014 47.183C-0.287014 46.8366 -0.0629107 46.6498 0.250834 46.5773C0.416145 46.5447 0.584437 46.5301 0.752824 46.5338L8.64658 46.6609C8.70036 46.67 8.75594 46.6573 8.89578 46.6392ZM20.6728 45.007C20.4469 44.4357 20.1475 43.9188 20.0346 43.3512C19.823 42.2903 19.7441 41.204 19.5613 40.1358C19.3461 38.8881 19.2027 37.6059 18.8083 36.4144C17.9119 33.6941 15.9398 31.8806 13.4997 30.5694C12.6464 30.1142 11.7374 29.7678 10.8535 29.3724L10.7944 29.4867C12.2286 30.1776 13.4424 31.157 14.5593 32.2687C15.9451 33.6397 17.0477 35.1921 17.5013 37.1199C18.1432 39.8511 17.5479 42.3429 15.9272 44.6026L15.6368 45.007H20.6728ZM24.6368 15.3828C25.067 15.7292 25.2804 16.2768 25.8917 16.2895C25.8218 15.225 25.5798 15.04 24.6368 15.3828Z" fill="black"/>
</g>
<defs>
<clipPath id="clip0_199_437">
<rect width="36.3077" height="48" fill="white"/>
</clipPath>
</defs>
</svg>
