<svg width="20" height="21" viewBox="0 0 20 21" fill="none" xmlns="http://www.w3.org/2000/svg">
<g id="Frame" clip-path="url(#clip0_337_324)">
<g id="Group">
<path id="Vector" d="M10 10.8284C10.7304 10.83 11.4526 10.6755 12.1184 10.3753C12.1768 10.349 12.2295 10.3115 12.2734 10.2649C12.3173 10.2183 12.3516 10.1635 12.3743 10.1037C12.397 10.0438 12.4077 9.98006 12.4058 9.91606C12.4039 9.85206 12.3893 9.78907 12.363 9.73069C12.3368 9.6723 12.2992 9.61967 12.2526 9.5758C12.2059 9.53194 12.1511 9.49769 12.0912 9.47502C12.0313 9.45235 11.9676 9.44171 11.9036 9.4437C11.8396 9.44568 11.7766 9.46026 11.7182 9.4866C10.8935 9.85758 9.97093 9.95181 9.08825 9.75521C8.20557 9.55862 7.41017 9.08175 6.82085 8.39584C6.23153 7.70992 5.87992 6.85176 5.81853 5.94954C5.75715 5.04731 5.98928 4.14944 6.48025 3.39002C6.97123 2.6306 7.6947 2.05039 8.54262 1.73604C9.39054 1.4217 10.3174 1.39009 11.1848 1.64594C12.0521 1.90179 12.8134 2.43136 13.355 3.15557C13.8966 3.87978 14.1893 4.75975 14.1896 5.66406C14.1829 6.15755 14.0941 6.64647 13.9268 7.11078C13.7822 7.4843 13.4897 7.72539 13.1809 7.72539C12.7533 7.72539 12.4054 7.32516 12.4054 6.83324V3.71066C12.4054 3.58141 12.354 3.45745 12.2627 3.36606C12.1713 3.27467 12.0473 3.22332 11.918 3.22332C11.7888 3.22332 11.6648 3.27467 11.5734 3.36606C11.482 3.45745 11.4307 3.58141 11.4307 3.71066V3.73195C11.0677 3.46267 10.6361 3.30113 10.1855 3.26583C9.73484 3.23053 9.28338 3.3229 8.88283 3.53236C8.48229 3.74183 8.14886 4.05991 7.92077 4.45014C7.69267 4.84038 7.57913 5.28698 7.59317 5.73877C7.60721 6.19056 7.74825 6.62926 8.00014 7.00458C8.25202 7.37991 8.60455 7.67667 9.01733 7.86086C9.43011 8.04505 9.88643 8.10922 10.334 8.04601C10.7816 7.9828 11.2023 7.79478 11.5479 7.50348C11.8009 8.2027 12.4373 8.7002 13.181 8.7002C13.8986 8.7002 14.5494 8.21117 14.839 7.45441L14.8429 7.44406C15.0485 6.87278 15.157 6.27115 15.1641 5.66406C15.1641 2.81664 12.8477 0.5 10 0.5C7.15234 0.5 4.83594 2.81664 4.83594 5.66406C4.83594 8.51148 7.15234 10.8284 10 10.8284ZM10 7.09492C9.71703 7.09493 9.44041 7.01103 9.20512 6.85383C8.96984 6.69662 8.78645 6.47318 8.67815 6.21176C8.56985 5.95033 8.54151 5.66266 8.5967 5.38512C8.65189 5.10759 8.78814 4.85265 8.98822 4.65255C9.1883 4.45245 9.44322 4.31617 9.72075 4.26095C9.99828 4.20572 10.286 4.23404 10.5474 4.34231C10.8088 4.45058 11.0323 4.63394 11.1895 4.86921C11.3467 5.10448 11.4307 5.38109 11.4307 5.66406C11.4303 6.04341 11.2795 6.4071 11.0112 6.67536C10.743 6.94361 10.3793 7.0945 10 7.09492Z" fill="white"/>
<path id="Vector_2" d="M16.668 6.84958C16.6171 6.81021 16.5588 6.78132 16.4967 6.76457C16.4346 6.74782 16.3697 6.74354 16.3059 6.75199C16.2421 6.76044 16.1806 6.78144 16.125 6.81379C16.0693 6.84613 16.0206 6.88918 15.9817 6.94044C15.9428 6.9917 15.9144 7.05016 15.8982 7.11245C15.882 7.17474 15.8783 7.23962 15.8873 7.30335C15.8963 7.36708 15.9179 7.42839 15.9507 7.48374C15.9836 7.5391 16.027 7.5874 16.0786 7.62587L18.015 9.09579L13.4678 12.5333C13.4155 12.5714 13.3714 12.6196 13.3379 12.675C13.3045 12.7303 13.2824 12.7918 13.2729 12.8558C13.2635 12.9198 13.2669 12.9851 13.2829 13.0477C13.2989 13.1104 13.3273 13.1693 13.3663 13.2209C13.4053 13.2725 13.4542 13.3158 13.5102 13.3483C13.5661 13.3808 13.628 13.4019 13.6921 13.4102C13.7563 13.4186 13.8215 13.4141 13.8839 13.397C13.9462 13.3799 14.0046 13.3505 14.0555 13.3106L18.2842 10.1138V19.1032C18.2842 19.2152 18.2397 19.3226 18.1605 19.4017C18.0814 19.4809 17.974 19.5254 17.8621 19.5254H2.13793C2.02598 19.5254 1.91861 19.4809 1.83945 19.4017C1.76029 19.3226 1.71582 19.2152 1.71582 19.1032V10.1184L5.89062 13.2972C5.99349 13.3749 6.123 13.4088 6.25078 13.3913C6.37855 13.3737 6.49417 13.3063 6.5723 13.2037C6.65043 13.1011 6.6847 12.9717 6.66761 12.8438C6.65051 12.716 6.58344 12.6002 6.48109 12.5217L1.9834 9.09704L3.93336 7.61657C4.03502 7.53797 4.10152 7.42239 4.11839 7.295C4.13526 7.1676 4.10112 7.0387 4.02342 6.93635C3.94572 6.834 3.83073 6.76648 3.70349 6.74849C3.57625 6.73049 3.44706 6.76348 3.34402 6.84028L0.97168 8.64106C0.900047 8.69544 0.841968 8.76566 0.801986 8.84622C0.762004 8.92678 0.741203 9.0155 0.741211 9.10544V19.1032C0.741211 19.4737 0.888364 19.829 1.1503 20.0909C1.41223 20.3528 1.76749 20.5 2.13793 20.5H17.8621C18.2325 20.5 18.5878 20.3528 18.8497 20.0909C19.1117 19.829 19.2588 19.4737 19.2588 19.1032V9.10571C19.2588 9.01577 19.238 8.92705 19.1981 8.84649C19.1581 8.76593 19.1 8.69572 19.0284 8.64133L16.668 6.84958Z" fill="white"/>
<path id="Vector_3" d="M8.90813 12.2891L2.55743 17.8955C2.46321 17.9818 2.40663 18.1016 2.39986 18.2291C2.39308 18.3567 2.43667 18.4818 2.52122 18.5776C2.60578 18.6733 2.72454 18.732 2.85196 18.7411C2.97938 18.7501 3.10526 18.7088 3.2025 18.626L9.55317 13.0195C9.67124 12.9157 9.82304 12.8583 9.98029 12.858C10.1375 12.8578 10.2895 12.9147 10.4079 13.0182L16.7988 18.6271C16.8467 18.67 16.9028 18.703 16.9636 18.7241C17.0244 18.7453 17.0888 18.7542 17.1531 18.7503C17.2173 18.7464 17.2802 18.7298 17.338 18.7015C17.3958 18.6731 17.4474 18.6336 17.4899 18.5852C17.5324 18.5369 17.5648 18.4805 17.5854 18.4195C17.6059 18.3585 17.6142 18.294 17.6097 18.2298C17.6052 18.1656 17.588 18.1029 17.5591 18.0453C17.5303 17.9878 17.4903 17.9365 17.4415 17.8945L11.0509 12.2857C10.7541 12.0263 10.3731 11.8836 9.97887 11.8842C9.58466 11.8848 9.20412 12.0287 8.90813 12.2891Z" fill="white"/>
</g>
</g>
<defs>
<clipPath id="clip0_337_324">
<rect width="20" height="20" fill="white" transform="translate(0 0.5)"/>
</clipPath>
</defs>
</svg>
