<svg width="20" height="20" viewBox="0 0 20 20" fill="none" xmlns="http://www.w3.org/2000/svg">
<g id="Frame">
<g id="Group">
<path id="Vector" d="M13.9418 11.9467V3.22293C13.9418 2.18918 13.1005 1.34793 12.0668 1.34793H3.34302C2.84591 1.34848 2.36931 1.5462 2.0178 1.89771C1.66629 2.24923 1.46857 2.72582 1.46802 3.22293V11.9467C1.46802 12.9804 2.30927 13.8217 3.34302 13.8217H12.0668C13.1005 13.8217 13.9418 12.9804 13.9418 11.9467ZM2.71802 11.9467V3.22293C2.71802 2.87835 2.99843 2.59793 3.34302 2.59793H12.0668C12.4114 2.59793 12.6918 2.87835 12.6918 3.22293V11.9467C12.6918 12.2913 12.4114 12.5717 12.0668 12.5717H3.34302C2.99843 12.5717 2.71802 12.2913 2.71802 11.9467ZM16.6572 6.17835H15.138C14.9723 6.17835 14.8133 6.2442 14.6961 6.36141C14.5789 6.47862 14.513 6.63759 14.513 6.80335C14.513 6.96911 14.5789 7.12808 14.6961 7.24529C14.8133 7.3625 14.9723 7.42835 15.138 7.42835H16.6572C17.0018 7.42835 17.2822 7.70876 17.2822 8.05335V16.7771C17.2822 17.1217 17.0018 17.4021 16.6572 17.4021H7.93385C7.58927 17.4021 7.30885 17.1217 7.30885 16.7771V15.0492C7.30885 14.8834 7.243 14.7244 7.12579 14.6072C7.00858 14.49 6.84961 14.4242 6.68385 14.4242C6.51809 14.4242 6.35912 14.49 6.24191 14.6072C6.1247 14.7244 6.05885 14.8834 6.05885 15.0492V16.7771C6.05885 17.8108 6.9001 18.6521 7.93385 18.6521H16.6572C17.6909 18.6521 18.5322 17.8108 18.5322 16.7771V8.05335C18.5322 7.0196 17.6909 6.17835 16.6572 6.17835Z" fill="#E7B133"/>
</g>
</g>
</svg>
