<svg width="16" height="20" viewBox="0 0 16 20" fill="none" xmlns="http://www.w3.org/2000/svg">
<g id="Frame" clip-path="url(#clip0_1176_743)">
<g id="Group">
<g id="Group_2">
<path id="Vector" d="M2.5 0C1.83745 0.00158443 1.20248 0.265485 0.733983 0.733983C0.265485 1.20248 0.00158443 1.83745 0 2.5V18C0 19.1 0.9 20 2 20H14C15.1 20 16 19.1 16 18C15.993 12.899 16 7.645 16 2.5C16 1.124 14.876 0 13.5 0H2.5ZM2.5 1H13.5C14.34 1 15 1.66 15 2.5V16.271C14.6966 16.0935 14.3515 16 14 16H2C1.636 16 1.295 16.1 1 16.271V2.5C1 1.66 1.66 1 2.5 1ZM2 17H14C14.563 17 15 17.437 15 18C15 18.563 14.563 19 14 19H2C1.437 19 1 18.563 1 18C1 17.437 1.437 17 2 17Z" fill="#E7B133"/>
<path id="Vector_2" d="M6.5 4C4.85 4 3.5 5.35 3.5 7C3.5 8.65 4.85 10 6.5 10C7.12265 10.0003 7.72973 9.80547 8.236 9.443L11.646 12.853C11.6924 12.8996 11.7476 12.9365 11.8084 12.9617C11.8691 12.9869 11.9342 12.9999 12 12.9999C12.0658 12.9999 12.1309 12.9869 12.1916 12.9617C12.2524 12.9365 12.3076 12.8996 12.354 12.853C12.4477 12.7592 12.5004 12.6321 12.5004 12.4995C12.5004 12.3669 12.4477 12.2398 12.354 12.146L8.944 8.736C9.294 8.246 9.5 7.646 9.5 7C9.5 5.35 8.15 4 6.5 4ZM6.5 5C7.61 5 8.5 5.89 8.5 7C8.5 8.11 7.61 9 6.5 9C5.39 9 4.5 8.11 4.5 7C4.5 5.89 5.39 5 6.5 5Z" fill="#E7B133"/>
</g>
</g>
</g>
<defs>
<clipPath id="clip0_1176_743">
<rect width="16" height="20" fill="white"/>
</clipPath>
</defs>
</svg>
