<svg width="21" height="21" viewBox="0 0 21 21" fill="none" xmlns="http://www.w3.org/2000/svg">
<g clip-path="url(#clip0_3084_761)">
<path d="M3.9375 5.90623C5.5125 5.90623 6.825 6.16873 8.00625 6.56248M3.9375 9.84373C5.5125 9.84373 6.825 10.1062 8.00625 10.5M3.9375 13.7812C5.5125 13.7812 6.825 14.0437 8.00625 14.4375M17.1938 5.90623C15.6188 5.90623 14.3062 6.16873 13.125 6.56248M17.1938 9.84373C15.6188 9.84373 14.3062 10.1062 13.125 10.5M17.1938 13.7812C15.6188 13.7812 14.3062 14.0437 13.125 14.4375M10.7625 3.54373C11.8125 3.01873 15.4875 1.44373 19.8188 2.23123C20.0813 2.23123 20.3438 2.62498 20.3438 2.88748V18.2437C20.3438 18.6375 19.95 18.9 19.5562 18.9C15.3562 18.1125 11.8125 19.6875 10.7625 20.2125C10.6312 20.3437 10.3688 20.3437 10.2375 20.2125C9.1875 19.6875 5.64375 18.1125 1.44375 18.9C1.05 19.0312 0.65625 18.6375 0.65625 18.2437V2.88748C0.65625 2.62498 0.91875 2.36248 1.18125 2.23123C5.38125 1.31248 9.1875 3.01873 10.2375 3.54373H10.7625Z" stroke="#E7B133" stroke-linecap="round"/>
</g>
<defs>
<clipPath id="clip0_3084_761">
<rect width="21" height="21" fill="white"/>
</clipPath>
</defs>
</svg>
