<svg width="24" height="21" viewBox="0 0 24 21" fill="none" xmlns="http://www.w3.org/2000/svg">
<path d="M16.3647 5.02142C16.3645 5.65322 16.105 6.25936 15.6425 6.70772C14.5777 7.74092 13.5447 8.81822 12.4396 9.81362C12.3162 9.9218 12.1544 9.98027 11.9875 9.97695C11.8206 9.97363 11.6615 9.90877 11.5428 9.79577L8.35957 6.70877C7.89657 6.26026 7.63672 5.65368 7.63672 5.02142C7.63672 4.38917 7.89657 3.78258 8.35957 3.33407C8.59046 3.11019 8.8651 2.93251 9.16767 2.81125C9.47023 2.69 9.79473 2.62757 10.1225 2.62757C10.4502 2.62757 10.7747 2.69 11.0773 2.81125C11.3798 2.93251 11.6545 3.11019 11.8854 3.33407L12.001 3.44642L12.1167 3.33407C12.4632 2.99688 12.9062 2.76658 13.3892 2.67249C13.8722 2.5784 14.3734 2.62478 14.8289 2.80572C15.2845 2.98666 15.6737 3.29398 15.9472 3.68856C16.2207 4.08313 16.366 4.54711 16.3647 5.02142Z" stroke="white" stroke-width="1.1" stroke-linejoin="round"/>
<path d="M18.5469 19.4274L22.7185 15.4122C22.8413 15.2942 22.9104 15.1341 22.9105 14.967V9.45244C22.9105 9.03473 22.7381 8.63412 22.4312 8.33875C22.1244 8.04338 21.7081 7.87744 21.2741 7.87744C20.8402 7.87744 20.4239 8.04338 20.1171 8.33875C19.8102 8.63412 19.6378 9.03473 19.6378 9.45244V14.1774" stroke="white" stroke-width="1.1" stroke-linecap="round" stroke-linejoin="round"/>
<path d="M18.5463 15.2274L19.4823 14.3265C19.5317 14.2794 19.5708 14.2233 19.5974 14.1615C19.624 14.0996 19.6376 14.0333 19.6373 13.9664C19.6365 13.8721 19.6088 13.7798 19.5573 13.6996C19.5057 13.6195 19.4322 13.5545 19.3449 13.5117L18.8616 13.2797C18.4522 13.0827 17.9887 13.0146 17.5369 13.085C17.085 13.1555 16.6676 13.361 16.3438 13.6724L15.3674 14.6121C14.9582 15.0059 14.7283 15.5399 14.7282 16.0968V19.4274M5.45543 19.4274L1.2838 15.4122C1.16101 15.2942 1.09195 15.1341 1.0918 14.967V9.45244C1.0918 9.03473 1.2642 8.63412 1.57108 8.33875C1.87795 8.04338 2.29417 7.87744 2.72816 7.87744C3.16215 7.87744 3.57837 8.04338 3.88524 8.33875C4.19212 8.63412 4.36452 9.03473 4.36452 9.45244V14.1774" stroke="white" stroke-width="1.1" stroke-linecap="round" stroke-linejoin="round"/>
<path d="M5.45614 15.2276L4.52014 14.3267C4.4224 14.2302 4.36694 14.1012 4.36523 13.9665C4.36523 13.7744 4.47869 13.599 4.6576 13.5119L5.14087 13.2798C5.5503 13.0828 6.01375 13.0147 6.46561 13.0851C6.91747 13.1556 7.33486 13.3611 7.65869 13.6725L8.63505 14.6123C9.04425 15.006 9.2742 15.5401 9.27433 16.097V19.4276" stroke="white" stroke-width="1.1" stroke-linecap="round" stroke-linejoin="round"/>
</svg>
