<svg width="20" height="21" viewBox="0 0 20 21" fill="none" xmlns="http://www.w3.org/2000/svg">
<g id="Frame">
<g id="Group">
<path id="Vector" d="M15 4.5C15 3.94773 14.5523 3.5 14 3.5H1C0.447735 3.5 0 3.94773 0 4.5C0 5.05227 0.447735 5.5 1 5.5H14C14.5523 5.5 15 5.05223 15 4.5ZM1 9.5H19C19.5523 9.5 20 9.94777 20 10.5C20 11.0523 19.5523 11.5 19 11.5H1C0.447735 11.5 0 11.0523 0 10.5C0 9.94777 0.447735 9.5 1 9.5ZM1 15.5H10C10.5522 15.5 11 15.9477 11 16.5C11 17.0522 10.5522 17.5 10 17.5H1C0.447735 17.5 0 17.0522 0 16.5C0 15.9477 0.447735 15.5 1 15.5Z" fill="white"/>
</g>
</g>
</svg>
