<svg width="72" height="59" viewBox="0 0 72 59" fill="none" xmlns="http://www.w3.org/2000/svg">
<path d="M7.66419 34.2435C7.28899 34.1838 6.93548 34.0068 6.65488 33.7248C6.39971 33.4682 6.22551 33.1414 6.15396 32.7852C6.0824 32.429 6.11665 32.059 6.25243 31.7213L10.0319 22.3063L3.62556 14.5242C3.39496 14.2455 3.25122 13.9044 3.21222 13.5434C3.17323 13.1823 3.24069 12.8173 3.40623 12.4937C3.57106 12.1701 3.82649 11.9019 4.14085 11.7223C4.45521 11.5427 4.81468 11.4597 5.17468 11.4834L15.2052 12.1531L20.5993 3.57101C20.9966 2.94062 21.7233 2.60835 22.4525 2.72439C23.1817 2.84042 23.7674 3.38153 23.9467 4.10208L26.3685 13.9295L36.106 16.4052C36.8231 16.587 37.3565 17.1803 37.4693 17.9139C37.5822 18.6476 37.2501 19.3798 36.623 19.7749L28.088 25.1782L28.7144 35.294C28.7599 36.0377 28.3631 36.7362 27.7016 37.0726C27.0414 37.4092 26.2483 37.317 25.6871 36.8418L17.991 30.3594L8.63935 34.132C8.32336 34.2584 7.98809 34.2951 7.66419 34.2435ZM18.3475 28.1512C18.6715 28.2027 18.9781 28.3413 19.2387 28.5594L26.5013 34.6814L25.9103 25.1334C25.8895 24.7997 25.9589 24.4661 26.1111 24.1681C26.2633 23.87 26.4927 23.6186 26.7749 23.4404L34.8342 18.337L25.6391 15.9991C25.3155 15.9173 25.0205 15.7483 24.7856 15.5104C24.5508 15.2724 24.385 14.9745 24.306 14.6484L22.0243 5.37648L16.9335 13.4765C16.5739 14.0541 15.9274 14.3873 15.2471 14.3424L5.77531 13.71L11.8241 21.0584C12.2574 21.5839 12.368 22.3027 12.1122 22.9364L8.54674 31.8227L17.3724 28.2624C17.6884 28.136 18.0236 28.0996 18.3475 28.1512ZM15.101 12.3191C15.101 12.3191 15.1008 12.3206 15.099 12.3217L15.101 12.3191ZM26.4132 14.1148L26.4143 14.1179C26.4145 14.1164 26.4145 14.1164 26.4131 14.1148L26.4132 14.1148Z" fill="#E7B133"/>
<g clip-path="url(#clip0_1046_1237)">
<path d="M61.006 53.9629C60.2122 53.9893 59.414 53.8839 58.6348 53.646L52.1206 51.6136C51.5138 51.4239 50.9279 51.1555 50.3864 50.8076L43.5413 46.4712C43.242 46.2822 42.9876 46.0278 42.7964 45.7266C42.6051 45.4254 42.4819 45.0848 42.4355 44.7294C42.3892 44.3739 42.4209 44.0126 42.5283 43.6715C42.6357 43.3303 42.8162 43.0179 43.0568 42.7567C43.3427 42.4433 43.7055 42.2132 44.1079 42.0902C44.5103 41.9672 44.9378 41.9556 45.3465 42.0567C45.3761 42.0617 45.4059 42.0728 45.4357 42.0838L49.0133 43.6141C49.0429 43.6191 49.0778 43.6059 49.1053 43.551C49.1439 43.4718 49.1013 43.4312 49.0831 43.4138L40.4891 35.225C39.3335 34.1239 39.2651 32.2729 40.3439 31.0974C40.8719 30.5221 41.5789 30.1926 42.3432 30.1672C43.1076 30.1418 43.8353 30.4234 44.4009 30.9624L48.0075 34.399C48.0644 33.954 48.2234 33.5291 48.4716 33.1587C48.7199 32.7883 49.0505 32.483 49.4366 32.2674C49.8226 32.0518 50.2533 31.9321 50.6936 31.9179C51.134 31.9038 51.5715 31.9956 51.9709 32.1859C52.0143 31.5547 52.2581 30.9288 52.7179 30.4277C53.1058 30.0072 53.6093 29.7158 54.1626 29.5915C54.716 29.4672 55.2936 29.5157 55.8201 29.7307C55.8501 29.0519 56.1111 28.4135 56.571 27.9124C57.0797 27.3596 57.7832 27.0353 58.5272 27.0105C59.2712 26.9858 59.9949 27.2626 60.5398 27.7803L66.7618 33.7089C67.449 34.3638 68.0051 35.143 68.4053 36.0113L70.3175 40.1701C71.5948 42.9585 71.0924 46.208 69.0314 48.4538L66.1473 51.5966C64.8019 53.0689 62.9287 53.8989 61.006 53.9629ZM44.755 43.192C44.4375 43.2026 44.136 43.3386 43.9145 43.5798C43.6704 43.8459 43.5534 44.2156 43.601 44.5799C43.6486 44.9442 43.8538 45.2672 44.1605 45.4609L51.0056 49.7974C51.4628 50.0881 51.9531 50.3117 52.4648 50.4746L58.979 52.5069C61.2159 53.2062 63.6947 52.5299 65.2901 50.7915L68.1743 47.6486C69.9059 45.7617 70.3258 43.0307 69.252 40.6914L67.3398 36.5326C67.0031 35.8001 66.5396 35.1497 65.9619 34.5992L59.7395 28.6586C59.423 28.358 59.0027 28.1972 58.5707 28.2116C58.1386 28.226 57.7301 28.4143 57.4346 28.7353C57.1394 29.057 56.9831 29.4821 56.998 29.9254C57.0128 30.3627 57.1914 30.7706 57.5018 31.0722L59.5879 33.06C59.7016 33.1683 59.7685 33.3182 59.7739 33.4766C59.7792 33.635 59.7226 33.789 59.6164 33.9047C59.5103 34.0204 59.3633 34.0883 59.2078 34.0935C59.0523 34.0986 58.9011 34.0407 58.7874 33.9323L56.7195 31.9619L56.7012 31.9445L55.8923 31.1737C55.2355 30.5478 54.2006 30.5823 53.5875 31.2504C52.9743 31.9186 53.0099 32.973 53.6668 33.5989L55.6252 35.465C55.7468 35.5809 55.8048 35.7289 55.8101 35.8847C55.8153 36.0405 55.7616 36.1922 55.6539 36.3157C55.6014 36.3731 55.5383 36.4193 55.4682 36.4517C55.398 36.4842 55.3223 36.5022 55.2453 36.5047C55.1683 36.5073 55.0915 36.4944 55.0194 36.4667C54.9472 36.439 54.8811 36.397 54.8249 36.3433L51.9176 33.5732C51.2608 32.9473 50.2259 32.9817 49.6128 33.6499C48.9996 34.318 49.0352 35.3724 49.6921 35.9983L51.6566 37.8702C51.8755 38.0789 51.9049 38.4258 51.7248 38.6717C51.5389 38.9178 51.2054 38.9768 50.9469 38.8175C50.9167 38.7945 50.8806 38.7717 50.8502 38.7427L43.6125 31.8463C42.9435 31.2088 41.844 31.2454 41.2195 31.926C40.9149 32.26 40.7531 32.7037 40.7696 33.1597C40.7861 33.6157 40.9796 34.0467 41.3075 34.3581L49.9014 42.5469C50.3332 42.9584 50.4372 43.5967 50.1549 44.1279C49.8727 44.6591 49.2989 44.9241 48.7172 44.7815C48.6876 44.7765 48.6578 44.7655 48.628 44.7545L45.0384 43.2186C44.9457 43.1953 44.8502 43.1864 44.755 43.192ZM38.9837 30.387C38.8308 30.3921 38.6818 30.337 38.5603 30.2271L36.383 28.1524C36.3266 28.0987 36.2812 28.0343 36.2493 27.9628C36.2174 27.8914 36.1996 27.8142 36.197 27.7357C36.1943 27.6573 36.2069 27.5791 36.2339 27.5057C36.2609 27.4322 36.3019 27.3649 36.3544 27.3077C36.407 27.2504 36.4701 27.2042 36.5402 27.1719C36.6104 27.1395 36.6861 27.1215 36.763 27.1189C36.84 27.1164 36.9168 27.1293 36.9889 27.1569C37.0611 27.1846 37.1272 27.2264 37.1835 27.2801L39.3608 29.3548C39.4454 29.4354 39.5046 29.5396 39.5312 29.6543C39.5577 29.7691 39.5503 29.8892 39.51 29.9995C39.4697 30.1099 39.3982 30.2056 39.3045 30.2745C39.2109 30.3435 39.0992 30.3826 38.9837 30.387Z" fill="#E7B133"/>
<path d="M46.2745 30.1444C46.1217 30.1495 45.9727 30.0945 45.8512 29.9846C45.7948 29.931 45.7494 29.8666 45.7174 29.7951C45.6855 29.7236 45.6677 29.6464 45.665 29.568C45.6624 29.4895 45.6749 29.4113 45.702 29.3378C45.729 29.2644 45.7701 29.1971 45.8227 29.1399L47.8552 26.925C47.9078 26.8678 47.9709 26.8216 48.041 26.7892C48.1112 26.7568 48.1869 26.7388 48.2638 26.7363C48.3408 26.7337 48.4176 26.7466 48.4897 26.7743C48.5619 26.8019 48.628 26.8438 48.6843 26.8974C48.7406 26.9511 48.786 27.0155 48.8179 27.087C48.8498 27.1585 48.8676 27.2356 48.8702 27.3141C48.8729 27.3925 48.8603 27.4707 48.8333 27.5442C48.8063 27.6176 48.7654 27.6849 48.7128 27.7422L46.6803 29.957C46.5724 30.0746 46.4215 30.1396 46.2745 30.1444ZM37.2017 40.0248C37.0489 40.0299 36.8999 39.9749 36.7784 39.8649C36.722 39.8113 36.6766 39.7469 36.6446 39.6754C36.6127 39.6039 36.5949 39.5268 36.5922 39.4483C36.5896 39.3698 36.6021 39.2916 36.6292 39.2182C36.6562 39.1447 36.6973 39.0774 36.7499 39.0202L38.7824 36.8054C38.835 36.7481 38.8981 36.7019 38.9682 36.6696C39.0383 36.6372 39.1141 36.6192 39.191 36.6166C39.268 36.6141 39.3448 36.627 39.4169 36.6546C39.4891 36.6823 39.5552 36.7241 39.6115 36.7778C39.6678 36.8314 39.7132 36.8958 39.7451 36.9673C39.777 37.0388 39.7948 37.116 39.7974 37.1944C39.8001 37.2729 39.7875 37.3511 39.7605 37.4245C39.7335 37.498 39.6926 37.5652 39.64 37.6225L37.6075 39.8374C37.5559 39.895 37.4933 39.9414 37.4236 39.9736C37.3538 40.0058 37.2784 40.0232 37.2017 40.0248ZM42.5771 28.7261C42.2537 28.7368 41.98 28.476 41.9689 28.1465L41.8665 25.1151C41.8554 24.7856 42.1109 24.5072 42.4343 24.4964C42.7577 24.4857 43.0314 24.7465 43.0425 25.076L43.1449 28.1074C43.156 28.4369 42.9005 28.7153 42.5771 28.7261ZM37.598 34.1518L34.6228 34.2508C34.2994 34.2616 34.0257 34.0008 34.0146 33.6713C34.0035 33.3418 34.259 33.0634 34.5823 33.0526L37.5575 32.9536C37.8809 32.9428 38.1546 33.2036 38.1657 33.5331C38.1768 33.8626 37.9213 34.141 37.598 34.1518Z" fill="#E7B133"/>
</g>
<defs>
<clipPath id="clip0_1046_1237">
<rect width="37.6513" height="38.3643" fill="white" transform="matrix(0.999447 -0.0332623 0.0337464 0.99943 33.0748 20.6575)"/>
</clipPath>
</defs>
</svg>
