<svg width="20" height="21" viewBox="0 0 20 21" fill="none" xmlns="http://www.w3.org/2000/svg">
<g id="Frame" clip-path="url(#clip0_337_331)">
<g id="Group">
<path id="Vector" d="M19.3745 9.87533H11.458C11.113 9.87533 10.833 9.59534 10.833 9.25035C10.833 8.90536 11.113 8.62537 11.458 8.62537H19.3745C19.7194 8.62537 19.9994 8.90536 19.9994 9.25035C19.9994 9.59534 19.7194 9.87533 19.3745 9.87533Z" fill="white"/>
<path id="Vector_2" d="M16.2495 13.0002C16.1674 13.0004 16.0861 12.9843 16.0103 12.9528C15.9344 12.9214 15.8656 12.8752 15.8077 12.8169C15.5636 12.5727 15.5636 12.1769 15.8077 11.9328L18.4911 9.24956L15.8077 6.56624C15.5636 6.32211 15.5636 5.9263 15.8077 5.68217C16.052 5.43788 16.4478 5.43788 16.692 5.68217L19.8169 8.80707C20.061 9.0512 20.061 9.44701 19.8169 9.69114L16.692 12.816C16.6341 12.8745 16.5652 12.9209 16.4892 12.9525C16.4133 12.9842 16.3318 13.0004 16.2495 13.0002ZM6.66651 20.5C6.48816 20.5 6.31894 20.475 6.14985 20.4224L1.13493 18.7517C0.452525 18.5133 0 17.8775 0 17.1668V2.16728C0 1.24813 0.747516 0.50061 1.66667 0.50061C1.84486 0.50061 2.01412 0.52561 2.18333 0.578108L7.1981 2.24891C7.88061 2.48723 8.33302 3.12307 8.33302 3.83379V18.8333C8.33302 19.7525 7.58566 20.5 6.66651 20.5ZM1.66667 1.75057C1.43749 1.75057 1.24996 1.93807 1.24996 2.16728V17.1668C1.24996 17.3443 1.3691 17.5092 1.53909 17.5684L6.53054 19.2317C6.5664 19.2433 6.61311 19.25 6.66651 19.25C6.89568 19.25 7.08306 19.0625 7.08306 18.8333V3.83379C7.08306 3.65633 6.96392 3.49138 6.79393 3.4322L1.80248 1.76889C1.76662 1.75729 1.71991 1.75057 1.66667 1.75057Z" fill="white"/>
<path id="Vector_3" d="M12.7079 7.16712C12.363 7.16712 12.083 6.88713 12.083 6.54214V2.79226C12.083 2.21806 11.6156 1.75057 11.0414 1.75057H1.66673C1.32174 1.75057 1.04175 1.47058 1.04175 1.12559C1.04175 0.780602 1.32174 0.50061 1.66673 0.50061H11.0414C12.3056 0.50061 13.3329 1.52812 13.3329 2.79226V6.54214C13.3329 6.88713 13.0529 7.16712 12.7079 7.16712ZM11.0414 18.0001H7.7081C7.36311 18.0001 7.08312 17.7201 7.08312 17.3751C7.08312 17.0301 7.36311 16.7501 7.7081 16.7501H11.0414C11.6156 16.7501 12.083 16.2826 12.083 15.7084V11.9585C12.083 11.6135 12.363 11.3336 12.7079 11.3336C13.0529 11.3336 13.3329 11.6135 13.3329 11.9585V15.7084C13.3329 16.9726 12.3056 18.0001 11.0414 18.0001Z" fill="white"/>
</g>
</g>
<defs>
<clipPath id="clip0_337_331">
<rect width="20" height="20" fill="white" transform="translate(0 0.5)"/>
</clipPath>
</defs>
</svg>
