<svg width="22" height="23" viewBox="0 0 22 23" fill="none" xmlns="http://www.w3.org/2000/svg">
<g clip-path="url(#clip0_889_234)">
<path d="M4.92413 21.6254C4.68307 21.6254 4.44373 21.5502 4.23945 21.4025C4.05366 21.268 3.9115 21.0819 3.83065 20.8673C3.7498 20.6526 3.73384 20.419 3.78474 20.1953L5.20008 13.9608L0.400179 9.75155C0.22755 9.60093 0.10302 9.40287 0.0420827 9.18201C-0.0188549 8.96116 -0.0135102 8.72726 0.057452 8.50942C0.127979 8.2917 0.260855 8.09947 0.439608 7.95655C0.61836 7.81364 0.835127 7.72633 1.06303 7.70546L7.41385 7.12885L9.92479 1.25285C10.1099 0.821131 10.5315 0.542343 11 0.542343C11.4685 0.542343 11.8901 0.821131 12.0753 1.25186L14.5861 7.12885L20.9359 7.70537C21.4035 7.74748 21.7977 8.06391 21.9425 8.50938C22.0874 8.95489 21.9534 9.4435 21.6006 9.75151L16.8007 13.96L18.2161 20.1943C18.3198 20.6527 18.1419 21.1268 17.7615 21.4017C17.382 21.6766 16.8759 21.6978 16.4763 21.4576L11 18.185L5.52369 21.4594C5.33853 21.5694 5.13223 21.6254 4.92413 21.6254ZM11 16.7752C11.2081 16.7752 11.4142 16.8311 11.5995 16.9411L16.7679 20.0322L15.4321 14.1478C15.3853 13.9422 15.3951 13.7277 15.4603 13.5271C15.5255 13.3265 15.6437 13.1473 15.8025 13.0085L20.3347 9.03374L14.3385 8.48927C14.1275 8.47038 13.9256 8.39445 13.7544 8.26961C13.5833 8.14477 13.4493 7.97572 13.3668 7.78057L11 2.23548L8.63028 7.78139C8.46343 8.17649 8.09212 8.44793 7.66144 8.48738L1.66444 9.03189L6.19647 13.0066C6.52106 13.2908 6.66303 13.7272 6.56687 14.147L5.23214 20.0312L10.4004 16.9411C10.5856 16.8311 10.7919 16.7752 11 16.7752ZM7.36533 7.24246C7.36533 7.24246 7.36533 7.24345 7.36434 7.24431L7.36533 7.24246ZM14.6328 7.23975L14.6338 7.2416C14.6338 7.24061 14.6338 7.24061 14.6328 7.23975H14.6328Z" fill="#E7B133"/>
</g>
<defs>
<clipPath id="clip0_889_234">
<rect width="22" height="22" fill="white" transform="translate(0 0.5)"/>
</clipPath>
</defs>
</svg>
