<svg width="20" height="20" viewBox="0 0 20 20" fill="none" xmlns="http://www.w3.org/2000/svg">
<mask id="path-1-outside-1_1085_261" maskUnits="userSpaceOnUse" x="0" y="0.260254" width="20" height="19" fill="black">
<rect fill="white" y="0.260254" width="20" height="19"/>
<path d="M18.6092 9.18201C18.7824 9.01212 18.9049 8.79622 18.9626 8.55903C19.0204 8.32184 19.011 8.07296 18.9357 7.8409C18.8621 7.60816 18.7253 7.40117 18.5409 7.24364C18.3565 7.08611 18.1321 6.98442 17.8934 6.95023L13.5351 6.30835C13.4437 6.29489 13.3568 6.25909 13.2821 6.20403C13.2074 6.14898 13.147 6.07633 13.1062 5.99234L11.1577 1.98946C11.0518 1.76996 10.887 1.58513 10.6823 1.45617C10.4775 1.3272 10.2411 1.25931 10 1.26026C9.759 1.25938 9.52262 1.3273 9.31794 1.45627C9.11326 1.58523 8.94855 1.77001 8.84267 1.98946L6.89384 5.99234C6.81094 6.16295 6.65019 6.28095 6.46457 6.30835L2.10628 6.9506C1.86759 6.9847 1.64321 7.08631 1.45891 7.24379C1.2746 7.40126 1.13783 7.60822 1.06429 7.8409C0.988951 8.07296 0.979626 8.32184 1.03738 8.55903C1.09513 8.79622 1.21763 9.01212 1.39083 9.18201L4.54421 12.2975C4.67865 12.4305 4.74028 12.6219 4.70857 12.809L3.96428 17.2086C3.92263 17.4492 3.94869 17.6968 4.03946 17.9231C4.13024 18.1494 4.28206 18.3451 4.47753 18.488C4.67187 18.6327 4.90259 18.7189 5.14312 18.7365C5.38364 18.7541 5.62419 18.7026 5.83706 18.5877L9.73472 16.5105C9.81655 16.4669 9.90758 16.4442 10 16.4442C10.0924 16.4442 10.1835 16.4669 10.2653 16.5105L14.1633 18.5877C14.3764 18.7019 14.6168 18.7531 14.8572 18.7354C15.0975 18.7178 15.3282 18.6321 15.5228 18.488C15.7183 18.3451 15.8701 18.1494 15.9609 17.9231C16.0517 17.6968 16.0777 17.4492 16.0361 17.2086L15.2914 12.8093C15.2759 12.717 15.2827 12.6222 15.3113 12.5331C15.34 12.444 15.3895 12.3632 15.4558 12.2979L18.6092 9.18201ZM14.5814 12.9328L15.3257 17.3321C15.3449 17.4384 15.3338 17.5481 15.2936 17.6482C15.2535 17.7483 15.1859 17.8347 15.099 17.8973C15.0134 17.9616 14.9115 17.9999 14.8052 18.0077C14.699 18.0155 14.5927 17.9926 14.4989 17.9415L10.6008 15.8638C10.4155 15.7653 10.2093 15.7139 9.99996 15.714C9.79065 15.714 9.58448 15.7656 9.39917 15.8642L5.50187 17.9415C5.40794 17.9925 5.30162 18.0155 5.1953 18.0077C5.08899 17.9999 4.98706 17.9616 4.9014 17.8973C4.81445 17.8347 4.74694 17.7483 4.70678 17.6482C4.66662 17.548 4.65549 17.4384 4.67469 17.3321L5.41897 12.9328C5.45436 12.7237 5.43906 12.5091 5.37438 12.3073C5.30971 12.1056 5.19761 11.9228 5.04773 11.7747L1.89399 8.65887C1.81671 8.5844 1.76206 8.48906 1.73652 8.38413C1.71097 8.27919 1.71559 8.16903 1.74982 8.06667C1.8183 7.85259 1.99022 7.70573 2.20972 7.67321L6.56765 7.03133C6.77484 7.00102 6.97162 6.92002 7.14099 6.79532C7.31036 6.67063 7.44721 6.50599 7.53972 6.31566L9.48855 2.31277C9.5346 2.21531 9.60718 2.13323 9.69773 2.0762C9.78829 2.01918 9.89304 1.98959 9.99964 1.99092C10.2217 1.99092 10.4127 2.11111 10.5111 2.31277L12.4599 6.31566C12.5524 6.50597 12.6892 6.67059 12.8585 6.79528C13.0278 6.91998 13.2245 7.001 13.4316 7.03133L17.7899 7.67321C17.8956 7.68755 17.995 7.7322 18.0765 7.80191C18.158 7.87162 18.2181 7.96348 18.2498 8.06667C18.3183 8.28039 18.2646 8.50178 18.1056 8.65887L14.9523 11.7744C14.8024 11.9225 14.6903 12.1053 14.6257 12.3072C14.5611 12.509 14.5459 12.7237 14.5814 12.9328Z"/>
</mask>
<path d="M18.6092 9.18201C18.7824 9.01212 18.9049 8.79622 18.9626 8.55903C19.0204 8.32184 19.011 8.07296 18.9357 7.8409C18.8621 7.60816 18.7253 7.40117 18.5409 7.24364C18.3565 7.08611 18.1321 6.98442 17.8934 6.95023L13.5351 6.30835C13.4437 6.29489 13.3568 6.25909 13.2821 6.20403C13.2074 6.14898 13.147 6.07633 13.1062 5.99234L11.1577 1.98946C11.0518 1.76996 10.887 1.58513 10.6823 1.45617C10.4775 1.3272 10.2411 1.25931 10 1.26026C9.759 1.25938 9.52262 1.3273 9.31794 1.45627C9.11326 1.58523 8.94855 1.77001 8.84267 1.98946L6.89384 5.99234C6.81094 6.16295 6.65019 6.28095 6.46457 6.30835L2.10628 6.9506C1.86759 6.9847 1.64321 7.08631 1.45891 7.24379C1.2746 7.40126 1.13783 7.60822 1.06429 7.8409C0.988951 8.07296 0.979626 8.32184 1.03738 8.55903C1.09513 8.79622 1.21763 9.01212 1.39083 9.18201L4.54421 12.2975C4.67865 12.4305 4.74028 12.6219 4.70857 12.809L3.96428 17.2086C3.92263 17.4492 3.94869 17.6968 4.03946 17.9231C4.13024 18.1494 4.28206 18.3451 4.47753 18.488C4.67187 18.6327 4.90259 18.7189 5.14312 18.7365C5.38364 18.7541 5.62419 18.7026 5.83706 18.5877L9.73472 16.5105C9.81655 16.4669 9.90758 16.4442 10 16.4442C10.0924 16.4442 10.1835 16.4669 10.2653 16.5105L14.1633 18.5877C14.3764 18.7019 14.6168 18.7531 14.8572 18.7354C15.0975 18.7178 15.3282 18.6321 15.5228 18.488C15.7183 18.3451 15.8701 18.1494 15.9609 17.9231C16.0517 17.6968 16.0777 17.4492 16.0361 17.2086L15.2914 12.8093C15.2759 12.717 15.2827 12.6222 15.3113 12.5331C15.34 12.444 15.3895 12.3632 15.4558 12.2979L18.6092 9.18201ZM14.5814 12.9328L15.3257 17.3321C15.3449 17.4384 15.3338 17.5481 15.2936 17.6482C15.2535 17.7483 15.1859 17.8347 15.099 17.8973C15.0134 17.9616 14.9115 17.9999 14.8052 18.0077C14.699 18.0155 14.5927 17.9926 14.4989 17.9415L10.6008 15.8638C10.4155 15.7653 10.2093 15.7139 9.99996 15.714C9.79065 15.714 9.58448 15.7656 9.39917 15.8642L5.50187 17.9415C5.40794 17.9925 5.30162 18.0155 5.1953 18.0077C5.08899 17.9999 4.98706 17.9616 4.9014 17.8973C4.81445 17.8347 4.74694 17.7483 4.70678 17.6482C4.66662 17.548 4.65549 17.4384 4.67469 17.3321L5.41897 12.9328C5.45436 12.7237 5.43906 12.5091 5.37438 12.3073C5.30971 12.1056 5.19761 11.9228 5.04773 11.7747L1.89399 8.65887C1.81671 8.5844 1.76206 8.48906 1.73652 8.38413C1.71097 8.27919 1.71559 8.16903 1.74982 8.06667C1.8183 7.85259 1.99022 7.70573 2.20972 7.67321L6.56765 7.03133C6.77484 7.00102 6.97162 6.92002 7.14099 6.79532C7.31036 6.67063 7.44721 6.50599 7.53972 6.31566L9.48855 2.31277C9.5346 2.21531 9.60718 2.13323 9.69773 2.0762C9.78829 2.01918 9.89304 1.98959 9.99964 1.99092C10.2217 1.99092 10.4127 2.11111 10.5111 2.31277L12.4599 6.31566C12.5524 6.50597 12.6892 6.67059 12.8585 6.79528C13.0278 6.91998 13.2245 7.001 13.4316 7.03133L17.7899 7.67321C17.8956 7.68755 17.995 7.7322 18.0765 7.80191C18.158 7.87162 18.2181 7.96348 18.2498 8.06667C18.3183 8.28039 18.2646 8.50178 18.1056 8.65887L14.9523 11.7744C14.8024 11.9225 14.6903 12.1053 14.6257 12.3072C14.5611 12.509 14.5459 12.7237 14.5814 12.9328Z" fill="#E7B133"/>
<path d="M18.6092 9.18201C18.7824 9.01212 18.9049 8.79622 18.9626 8.55903C19.0204 8.32184 19.011 8.07296 18.9357 7.8409C18.8621 7.60816 18.7253 7.40117 18.5409 7.24364C18.3565 7.08611 18.1321 6.98442 17.8934 6.95023L13.5351 6.30835C13.4437 6.29489 13.3568 6.25909 13.2821 6.20403C13.2074 6.14898 13.147 6.07633 13.1062 5.99234L11.1577 1.98946C11.0518 1.76996 10.887 1.58513 10.6823 1.45617C10.4775 1.3272 10.2411 1.25931 10 1.26026C9.759 1.25938 9.52262 1.3273 9.31794 1.45627C9.11326 1.58523 8.94855 1.77001 8.84267 1.98946L6.89384 5.99234C6.81094 6.16295 6.65019 6.28095 6.46457 6.30835L2.10628 6.9506C1.86759 6.9847 1.64321 7.08631 1.45891 7.24379C1.2746 7.40126 1.13783 7.60822 1.06429 7.8409C0.988951 8.07296 0.979626 8.32184 1.03738 8.55903C1.09513 8.79622 1.21763 9.01212 1.39083 9.18201L4.54421 12.2975C4.67865 12.4305 4.74028 12.6219 4.70857 12.809L3.96428 17.2086C3.92263 17.4492 3.94869 17.6968 4.03946 17.9231C4.13024 18.1494 4.28206 18.3451 4.47753 18.488C4.67187 18.6327 4.90259 18.7189 5.14312 18.7365C5.38364 18.7541 5.62419 18.7026 5.83706 18.5877L9.73472 16.5105C9.81655 16.4669 9.90758 16.4442 10 16.4442C10.0924 16.4442 10.1835 16.4669 10.2653 16.5105L14.1633 18.5877C14.3764 18.7019 14.6168 18.7531 14.8572 18.7354C15.0975 18.7178 15.3282 18.6321 15.5228 18.488C15.7183 18.3451 15.8701 18.1494 15.9609 17.9231C16.0517 17.6968 16.0777 17.4492 16.0361 17.2086L15.2914 12.8093C15.2759 12.717 15.2827 12.6222 15.3113 12.5331C15.34 12.444 15.3895 12.3632 15.4558 12.2979L18.6092 9.18201ZM14.5814 12.9328L15.3257 17.3321C15.3449 17.4384 15.3338 17.5481 15.2936 17.6482C15.2535 17.7483 15.1859 17.8347 15.099 17.8973C15.0134 17.9616 14.9115 17.9999 14.8052 18.0077C14.699 18.0155 14.5927 17.9926 14.4989 17.9415L10.6008 15.8638C10.4155 15.7653 10.2093 15.7139 9.99996 15.714C9.79065 15.714 9.58448 15.7656 9.39917 15.8642L5.50187 17.9415C5.40794 17.9925 5.30162 18.0155 5.1953 18.0077C5.08899 17.9999 4.98706 17.9616 4.9014 17.8973C4.81445 17.8347 4.74694 17.7483 4.70678 17.6482C4.66662 17.548 4.65549 17.4384 4.67469 17.3321L5.41897 12.9328C5.45436 12.7237 5.43906 12.5091 5.37438 12.3073C5.30971 12.1056 5.19761 11.9228 5.04773 11.7747L1.89399 8.65887C1.81671 8.5844 1.76206 8.48906 1.73652 8.38413C1.71097 8.27919 1.71559 8.16903 1.74982 8.06667C1.8183 7.85259 1.99022 7.70573 2.20972 7.67321L6.56765 7.03133C6.77484 7.00102 6.97162 6.92002 7.14099 6.79532C7.31036 6.67063 7.44721 6.50599 7.53972 6.31566L9.48855 2.31277C9.5346 2.21531 9.60718 2.13323 9.69773 2.0762C9.78829 2.01918 9.89304 1.98959 9.99964 1.99092C10.2217 1.99092 10.4127 2.11111 10.5111 2.31277L12.4599 6.31566C12.5524 6.50597 12.6892 6.67059 12.8585 6.79528C13.0278 6.91998 13.2245 7.001 13.4316 7.03133L17.7899 7.67321C17.8956 7.68755 17.995 7.7322 18.0765 7.80191C18.158 7.87162 18.2181 7.96348 18.2498 8.06667C18.3183 8.28039 18.2646 8.50178 18.1056 8.65887L14.9523 11.7744C14.8024 11.9225 14.6903 12.1053 14.6257 12.3072C14.5611 12.509 14.5459 12.7237 14.5814 12.9328Z" stroke="#E7B133" stroke-width="0.6" mask="url(#path-1-outside-1_1085_261)"/>
<path d="M18.5 8L13 7L10 2L7 7L1.5 8L5.5 12L4.5 18.5L10.5 15.5L15.5 18.5L14.5 12L18.5 8Z" fill="#E7B133"/>
</svg>
