<svg width="20" height="20" viewBox="0 0 20 20" fill="none" xmlns="http://www.w3.org/2000/svg">
<g clip-path="url(#clip0_1128_274)">
<path fill-rule="evenodd" clip-rule="evenodd" d="M3.85398 19.0024C4.03969 19.1366 4.25727 19.205 4.47642 19.205C4.66561 19.205 4.85315 19.1541 5.02147 19.0541L9.99992 16.0773L14.9784 19.0524C15.3417 19.2708 15.8018 19.2516 16.1468 19.0016C16.4925 18.7517 16.6543 18.3208 16.56 17.904L15.2733 12.2365L19.6368 8.41054C19.9576 8.13054 20.0794 7.68635 19.9477 7.28134C19.816 6.87636 19.4577 6.5887 19.0326 6.55042L13.26 6.0263L10.9774 0.683591C10.8091 0.292018 10.4258 0.0385742 9.99992 0.0385742C9.57401 0.0385742 9.19072 0.292018 9.02247 0.684489L6.7398 6.0263L0.966332 6.5505C0.759145 6.56948 0.562085 6.64885 0.399582 6.77877C0.23708 6.90869 0.116283 7.08345 0.052168 7.28137C-0.012343 7.47941 -0.0172019 7.69204 0.038196 7.89282C0.0935938 8.09359 0.206803 8.27365 0.363738 8.41058L4.72729 12.2372L3.44061 17.9049C3.39434 18.1082 3.40885 18.3207 3.48235 18.5158C3.55584 18.7109 3.68508 18.8801 3.85398 19.0024ZM13.3034 6.12881L13.3025 6.12713C13.3031 6.12762 13.3033 6.1278 13.3034 6.1281C13.3034 6.12827 13.3034 6.12848 13.3034 6.12881Z" fill="#E7B133"/>
</g>
<defs>
<clipPath id="clip0_1128_274">
<rect width="20" height="20" fill="white"/>
</clipPath>
</defs>
</svg>
