<svg width="25" height="25" viewBox="0 0 25 25" fill="none" xmlns="http://www.w3.org/2000/svg">
<g clip-path="url(#clip0_3037_642)">
<mask id="mask0_3037_642" style="mask-type:luminance" maskUnits="userSpaceOnUse" x="0" y="10" width="25" height="16">
<path d="M24.3254 10.5508H0.664062V25.8103H24.3254V10.5508Z" fill="white"/>
</mask>
<g mask="url(#mask0_3037_642)">
<mask id="mask1_3037_642" style="mask-type:luminance" maskUnits="userSpaceOnUse" x="1" y="12" width="23" height="12">
<path d="M23.107 12.3311H1.8457V23.9573H23.107V12.3311Z" fill="white"/>
</mask>
<g mask="url(#mask1_3037_642)">
<path d="M8.74207 21.5714C8.76006 21.5714 8.89594 21.569 9.04424 21.5694C9.19254 21.5697 9.30732 21.5694 9.30006 21.5694C9.29279 21.5694 9.15697 21.5711 8.99824 21.5714C8.83957 21.5718 8.72414 21.5742 8.74207 21.5714Z" fill="white"/>
<path d="M8.75587 21.5716C8.78921 21.5686 8.82273 21.5677 8.85613 21.5688C8.91009 21.5688 8.95157 21.5688 8.94847 21.5706C8.93499 21.5737 8.75417 21.5744 8.75587 21.5706V21.5716Z" fill="white"/>
<path d="M6.94883 13.4174L6.34384 12.7489C6.00968 12.7489 6.34379 12.6386 6.34379 12.973V15.049C6.34379 15.3834 6.61467 15.6546 6.94883 15.6546H9.02311C9.35721 15.6546 9.44947 15.6738 9.44947 15.3394L8.15416 14.2949C7.94529 13.9606 7.28293 13.4174 6.94883 13.4174Z" fill="white"/>
<path d="M18.4322 12.8328L17.5965 13.5431C17.2205 13.8355 16.5102 14.4205 16.2595 14.713L15.4238 15.4233C15.4238 15.7577 15.6026 15.6548 15.9368 15.6548H18.011C18.3451 15.6548 18.616 15.3837 18.616 15.0493V12.9733C18.616 12.6389 18.7663 12.8328 18.4322 12.8328Z" fill="white"/>
<path d="M9.02307 16.8657H6.94879C6.61463 16.8657 6.34375 17.1368 6.34375 17.4712V19.5473C6.34375 19.8817 6.61463 20.1528 6.94879 20.1528H9.02307C9.35717 20.1528 9.62805 19.8817 9.62805 19.5473V17.4712C9.62805 17.1368 9.35717 16.8657 9.02307 16.8657Z" fill="white"/>
<path d="M13.6693 16.8857L12.4158 17.9721L11.2041 16.9275C10.87 16.9275 10.8379 17.137 10.8379 17.4714V19.5475C10.8379 19.8819 11.1088 20.153 11.4429 20.153H13.5172C13.8513 20.153 14.1222 19.8819 14.1222 19.5475V17.4714C14.1222 17.137 14.0034 16.8857 13.6693 16.8857Z" fill="white"/>
<path d="M18.0113 16.8657H15.937C15.6029 16.8657 15.332 17.1368 15.332 17.4712V19.5473C15.332 19.8817 15.6029 20.1528 15.937 20.1528H18.0113C18.3454 20.1528 18.6163 19.8817 18.6163 19.5473V17.4712C18.6163 17.1368 18.3454 16.8657 18.0113 16.8657Z" fill="white"/>
<path d="M4.52891 12.3677H2.45461C2.12048 12.3677 1.84961 12.6387 1.84961 12.9732V15.0492C1.84961 15.3836 2.12048 15.6547 2.45461 15.6547H4.52891C4.86302 15.6547 5.13389 15.3836 5.13389 15.0492V12.9732C5.13389 12.6387 4.86302 12.3677 4.52891 12.3677Z" fill="white"/>
<path d="M22.5054 12.3677H20.4312C20.097 12.3677 19.8262 12.6387 19.8262 12.9732V15.0492C19.8262 15.3836 20.097 15.6547 20.4312 15.6547H22.5054C22.8395 15.6547 23.1104 15.3836 23.1104 15.0492V12.9732C23.1104 12.6387 22.8395 12.3677 22.5054 12.3677Z" fill="white"/>
<path d="M4.52891 16.8657H2.45461C2.12048 16.8657 1.84961 17.1368 1.84961 17.4712V19.5473C1.84961 19.8817 2.12048 20.1528 2.45461 20.1528H4.52891C4.86302 20.1528 5.13389 19.8817 5.13389 19.5473V17.4712C5.13389 17.1368 4.86302 16.8657 4.52891 16.8657Z" fill="white"/>
<path d="M22.5054 16.8657H20.4312C20.097 16.8657 19.8262 17.1368 19.8262 17.4712V19.5473C19.8262 19.8817 20.097 20.1528 20.4312 20.1528H22.5054C22.8395 20.1528 23.1104 19.8817 23.1104 19.5473V17.4712C23.1104 17.1368 22.8395 16.8657 22.5054 16.8657Z" fill="white"/>
</g>
<path d="M18.6297 21.3457H6.36123C6.19728 21.3457 6.06445 21.5017 6.06445 21.6943V23.6365C6.06445 23.829 6.19728 23.9851 6.36123 23.9851H18.6297C18.7937 23.9851 18.9265 23.829 18.9265 23.6365V21.6943C18.9265 21.5017 18.7937 21.3457 18.6297 21.3457Z" fill="white"/>
</g>
<path d="M17.7119 0.869141C18.1809 0.888015 18.495 1.03412 18.6963 1.25C18.8763 1.44311 19.0035 1.73207 19.0371 2.1416L19.0459 2.32422V11.2227L19.0361 11.4785C19.0168 11.7066 18.9682 11.8586 18.8867 11.9971C18.7671 12.2001 18.5543 12.4131 18.1367 12.7559L18.1299 12.7617L12.457 17.6504L6.77148 12.7676L6.76465 12.7627L6.49121 12.5293C6.25401 12.3166 6.11822 12.1594 6.03418 12.0088C5.93045 11.8229 5.88621 11.611 5.88574 11.2227L5.87891 2.33105C5.88581 1.8279 6.02723 1.47991 6.24023 1.25586C6.44985 1.03557 6.77315 0.88814 7.24121 0.869141H17.7119Z" stroke="white" stroke-width="0.8"/>
<path d="M11.6934 14.1504L12.2324 9.06444C11.8418 9.07223 11.4238 9.11132 10.9785 9.18163C10.541 9.25194 10.1426 9.31833 9.7832 9.38085V8.08007C9.96291 8.1113 10.1816 8.15038 10.4395 8.19725C10.6973 8.24413 10.9629 8.28708 11.2363 8.32616C11.5176 8.35739 11.7793 8.38083 12.0215 8.39647C11.9434 8.26364 11.8301 8.07227 11.6816 7.82225C11.5332 7.57223 11.373 7.28712 11.2012 6.96678C11.0293 6.64651 10.8653 6.31446 10.709 5.97069C10.5527 5.61913 10.4238 5.27929 10.3223 4.95116C10.2285 4.61524 10.1816 4.31055 10.1816 4.0371C10.1816 3.54492 10.291 3.15039 10.5098 2.85352C10.7285 2.55664 11.0137 2.3457 11.3652 2.2207C11.7168 2.08789 12.0879 2.02148 12.4785 2.02148C12.8692 2.02148 13.2363 2.08789 13.5801 2.2207C13.9316 2.3457 14.2168 2.55664 14.4355 2.85352C14.6621 3.15039 14.7754 3.54492 14.7754 4.0371C14.7754 4.31055 14.7246 4.61524 14.623 4.95116C14.5215 5.27929 14.3926 5.61913 14.2363 5.97069C14.0879 6.31446 13.9277 6.64651 13.7559 6.96678C13.584 7.28712 13.4238 7.57223 13.2754 7.82225C13.127 8.07227 13.0098 8.26364 12.9238 8.39647C13.1738 8.38083 13.4355 8.35739 13.709 8.32616C13.9902 8.28708 14.2598 8.24413 14.5176 8.19725C14.7754 8.15038 14.9903 8.1113 15.1621 8.08007V9.39257C14.7949 9.32225 14.3926 9.25194 13.9551 9.18163C13.5176 9.11132 13.1035 9.07223 12.7129 9.06444L13.252 14.1504H11.6934ZM12.3027 8.40819H12.6309C12.5215 8.20505 12.3887 7.96288 12.2324 7.68163C12.0762 7.39259 11.9121 7.08397 11.7402 6.75585C11.5762 6.42772 11.4199 6.0996 11.2715 5.77147C11.1231 5.43555 11.002 5.11915 10.9082 4.82225C10.8145 4.51757 10.7676 4.25583 10.7676 4.0371C10.7676 3.66992 10.8574 3.38476 11.0371 3.18164C11.2246 2.9707 11.4512 2.82226 11.7168 2.73633C11.9824 2.65039 12.2363 2.60742 12.4785 2.60742C12.7207 2.60742 12.9707 2.65039 13.2285 2.73633C13.4941 2.82226 13.7207 2.9707 13.9082 3.18164C14.0957 3.38476 14.1895 3.66992 14.1895 4.0371C14.1895 4.27147 14.1348 4.55272 14.0254 4.88085C13.9238 5.20118 13.791 5.54102 13.627 5.90038C13.4629 6.25194 13.291 6.59958 13.1113 6.94335C12.9316 7.28712 12.7637 7.5996 12.6074 7.88085L12.7832 8.18553C12.8692 8.03712 12.9824 7.84177 13.123 7.5996C13.2715 7.34958 13.4277 7.07225 13.5918 6.76757C13.7559 6.45509 13.9082 6.13475 14.0488 5.80663C14.1972 5.4785 14.3144 5.1621 14.4004 4.85741C14.4941 4.55272 14.541 4.27927 14.541 4.0371C14.541 3.59961 14.4433 3.25195 14.248 2.99414C14.0528 2.73633 13.7949 2.54883 13.4746 2.43164C13.1621 2.31445 12.8301 2.25586 12.4785 2.25586C12.127 2.25586 11.7949 2.31445 11.4824 2.43164C11.1699 2.54883 10.9121 2.73633 10.709 2.99414C10.5137 3.25195 10.416 3.59961 10.416 4.0371C10.416 4.31835 10.4785 4.64647 10.6035 5.02147C10.7285 5.38868 10.8808 5.76755 11.0605 6.15819C11.248 6.54098 11.4316 6.9004 11.6113 7.23632C11.7988 7.57223 11.959 7.84962 12.0918 8.06835C12.2246 8.27928 12.2949 8.39261 12.3027 8.40819ZM12.4785 7.64647C12.6348 7.35743 12.7988 7.04489 12.9707 6.70897C13.1426 6.37305 13.3028 6.03708 13.4512 5.70116C13.5996 5.36524 13.7207 5.0527 13.8145 4.76366C13.9082 4.47462 13.9551 4.23239 13.9551 4.0371C13.9551 3.72461 13.873 3.48242 13.709 3.31055C13.5527 3.13867 13.3613 3.01758 13.1348 2.94727C12.9082 2.86914 12.6895 2.83008 12.4785 2.83008C12.2676 2.83008 12.0449 2.86914 11.8105 2.94727C11.584 3.01758 11.3887 3.13867 11.2246 3.31055C11.0683 3.48242 10.9902 3.72461 10.9902 4.0371C10.9902 4.23239 11.0371 4.47462 11.1309 4.76366C11.2246 5.0527 11.3457 5.36524 11.4941 5.70116C11.6426 6.03708 11.8028 6.37305 11.9746 6.70897C12.1543 7.04489 12.3222 7.35743 12.4785 7.64647ZM10.0059 9.11132C10.1777 9.08009 10.3965 9.04493 10.6621 9.00585C10.9356 8.95897 11.2285 8.91989 11.541 8.88866C11.8613 8.84958 12.1699 8.83007 12.4668 8.83007C12.7637 8.83007 13.0684 8.84958 13.3809 8.88866C13.7012 8.91989 13.998 8.95897 14.2715 9.00585C14.5449 9.04493 14.7637 9.08009 14.9277 9.11132V8.36132C14.8028 8.38475 14.6035 8.41991 14.3301 8.46678C14.0566 8.50587 13.7519 8.54489 13.416 8.58397C13.0879 8.62305 12.7715 8.64257 12.4668 8.64257C12.2559 8.64257 11.998 8.62692 11.6934 8.59569C11.3965 8.56446 11.0957 8.5293 10.791 8.49022C10.4941 8.44335 10.2324 8.4004 10.0059 8.36132V9.11132ZM11.9629 13.9277H12.9941C12.8926 13.1387 12.8066 12.334 12.7363 11.5137C12.666 10.6933 12.5801 9.87696 12.4785 9.06444L11.9629 13.9277Z" fill="white"/>
<mask id="mask2_3037_642" style="mask-type:luminance" maskUnits="userSpaceOnUse" x="9" y="1" width="7" height="14">
<path d="M15.2539 1.96289H9.6875V14.209H15.2539V1.96289Z" fill="white"/>
<path d="M11.6934 14.1504L12.2324 9.06444C11.8418 9.07223 11.4238 9.11132 10.9785 9.18163C10.541 9.25194 10.1426 9.31833 9.7832 9.38085V8.08007C9.96291 8.1113 10.1816 8.15038 10.4395 8.19725C10.6973 8.24413 10.9629 8.28708 11.2363 8.32616C11.5176 8.35739 11.7793 8.38083 12.0215 8.39647C11.9434 8.26364 11.8301 8.07227 11.6816 7.82225C11.5332 7.57223 11.373 7.28712 11.2012 6.96678C11.0293 6.64651 10.8653 6.31446 10.709 5.97069C10.5527 5.61913 10.4238 5.27929 10.3223 4.95116C10.2285 4.61524 10.1816 4.31055 10.1816 4.0371C10.1816 3.54492 10.291 3.15039 10.5098 2.85352C10.7285 2.55664 11.0137 2.3457 11.3652 2.2207C11.7168 2.08789 12.0879 2.02148 12.4785 2.02148C12.8692 2.02148 13.2363 2.08789 13.5801 2.2207C13.9316 2.3457 14.2168 2.55664 14.4355 2.85352C14.6621 3.15039 14.7754 3.54492 14.7754 4.0371C14.7754 4.31055 14.7246 4.61524 14.623 4.95116C14.5215 5.27929 14.3926 5.61913 14.2363 5.97069C14.0879 6.31446 13.9277 6.64651 13.7559 6.96678C13.584 7.28712 13.4238 7.57223 13.2754 7.82225C13.127 8.07227 13.0098 8.26364 12.9238 8.39647C13.1738 8.38083 13.4355 8.35739 13.709 8.32616C13.9902 8.28708 14.2598 8.24413 14.5176 8.19725C14.7754 8.15038 14.9903 8.1113 15.1621 8.08007V9.39257C14.7949 9.32225 14.3926 9.25194 13.9551 9.18163C13.5176 9.11132 13.1035 9.07223 12.7129 9.06444L13.252 14.1504H11.6934ZM12.3027 8.40819H12.6309C12.5215 8.20505 12.3887 7.96288 12.2324 7.68163C12.0762 7.39259 11.9121 7.08397 11.7402 6.75585C11.5762 6.42772 11.4199 6.0996 11.2715 5.77147C11.1231 5.43555 11.002 5.11915 10.9082 4.82225C10.8145 4.51757 10.7676 4.25583 10.7676 4.0371C10.7676 3.66992 10.8574 3.38476 11.0371 3.18164C11.2246 2.9707 11.4512 2.82226 11.7168 2.73633C11.9824 2.65039 12.2363 2.60742 12.4785 2.60742C12.7207 2.60742 12.9707 2.65039 13.2285 2.73633C13.4941 2.82226 13.7207 2.9707 13.9082 3.18164C14.0957 3.38476 14.1895 3.66992 14.1895 4.0371C14.1895 4.27147 14.1348 4.55272 14.0254 4.88085C13.9238 5.20118 13.791 5.54102 13.627 5.90038C13.4629 6.25194 13.291 6.59958 13.1113 6.94335C12.9316 7.28712 12.7637 7.5996 12.6074 7.88085L12.7832 8.18553C12.8692 8.03712 12.9824 7.84177 13.123 7.5996C13.2715 7.34958 13.4277 7.07225 13.5918 6.76757C13.7559 6.45509 13.9082 6.13475 14.0488 5.80663C14.1972 5.4785 14.3144 5.1621 14.4004 4.85741C14.4941 4.55272 14.541 4.27927 14.541 4.0371C14.541 3.59961 14.4433 3.25195 14.248 2.99414C14.0528 2.73633 13.7949 2.54883 13.4746 2.43164C13.1621 2.31445 12.8301 2.25586 12.4785 2.25586C12.127 2.25586 11.7949 2.31445 11.4824 2.43164C11.1699 2.54883 10.9121 2.73633 10.709 2.99414C10.5137 3.25195 10.416 3.59961 10.416 4.0371C10.416 4.31835 10.4785 4.64647 10.6035 5.02147C10.7285 5.38868 10.8808 5.76755 11.0605 6.15819C11.248 6.54098 11.4316 6.9004 11.6113 7.23632C11.7988 7.57223 11.959 7.84962 12.0918 8.06835C12.2246 8.27928 12.2949 8.39261 12.3027 8.40819ZM12.4785 7.64647C12.6348 7.35743 12.7988 7.04489 12.9707 6.70897C13.1426 6.37305 13.3028 6.03708 13.4512 5.70116C13.5996 5.36524 13.7207 5.0527 13.8145 4.76366C13.9082 4.47462 13.9551 4.23239 13.9551 4.0371C13.9551 3.72461 13.873 3.48242 13.709 3.31055C13.5527 3.13867 13.3613 3.01758 13.1348 2.94727C12.9082 2.86914 12.6895 2.83008 12.4785 2.83008C12.2676 2.83008 12.0449 2.86914 11.8105 2.94727C11.584 3.01758 11.3887 3.13867 11.2246 3.31055C11.0683 3.48242 10.9902 3.72461 10.9902 4.0371C10.9902 4.23239 11.0371 4.47462 11.1309 4.76366C11.2246 5.0527 11.3457 5.36524 11.4941 5.70116C11.6426 6.03708 11.8028 6.37305 11.9746 6.70897C12.1543 7.04489 12.3222 7.35743 12.4785 7.64647ZM10.0059 9.11132C10.1777 9.08009 10.3965 9.04493 10.6621 9.00585C10.9356 8.95897 11.2285 8.91989 11.541 8.88866C11.8613 8.84958 12.1699 8.83007 12.4668 8.83007C12.7637 8.83007 13.0684 8.84958 13.3809 8.88866C13.7012 8.91989 13.998 8.95897 14.2715 9.00585C14.5449 9.04493 14.7637 9.08009 14.9277 9.11132V8.36132C14.8028 8.38475 14.6035 8.41991 14.3301 8.46678C14.0566 8.50587 13.7519 8.54489 13.416 8.58397C13.0879 8.62305 12.7715 8.64257 12.4668 8.64257C12.2559 8.64257 11.998 8.62692 11.6934 8.59569C11.3965 8.56446 11.0957 8.5293 10.791 8.49022C10.4941 8.44335 10.2324 8.4004 10.0059 8.36132V9.11132ZM11.9629 13.9277H12.9941C12.8926 13.1387 12.8066 12.334 12.7363 11.5137C12.666 10.6933 12.5801 9.87696 12.4785 9.06444L11.9629 13.9277Z" fill="white"/>
</mask>
<g mask="url(#mask2_3037_642)">
<path d="M11.6934 14.1504L11.6351 14.1442L11.6282 14.209H11.6934V14.1504ZM12.2324 9.06444L12.2907 9.07065L12.2977 9.00456L12.2312 9.00585L12.2324 9.06444ZM10.9785 9.18163L10.9694 9.12374L10.9692 9.1238L10.9785 9.18163ZM9.7832 9.38085H9.72461V9.45052L9.79322 9.43856L9.7832 9.38085ZM9.7832 8.08007L9.79322 8.02235L9.72461 8.0104V8.08007H9.7832ZM11.2363 8.32616L11.2281 8.38417L11.2289 8.38428L11.2299 8.3844L11.2363 8.32616ZM12.0215 8.39647L12.0177 8.45495L12.1281 8.4621L12.072 8.36677L12.0215 8.39647ZM10.709 5.97069L10.6554 5.99448L10.6557 5.99495L10.709 5.97069ZM10.3223 4.95116L10.2658 4.96692L10.2661 4.96768L10.2663 4.9685L10.3223 4.95116ZM11.3652 2.2207L11.3849 2.27591L11.3854 2.27572L11.3859 2.27551L11.3652 2.2207ZM13.5801 2.2207L13.559 2.27536L13.5597 2.27564L13.5604 2.27591L13.5801 2.2207ZM14.4355 2.85352L14.3884 2.88827L14.3887 2.88867L14.389 2.88906L14.4355 2.85352ZM14.623 4.95116L14.679 4.9685L14.6791 4.96815L14.623 4.95116ZM14.2363 5.97069L14.1828 5.9469L14.1825 5.94749L14.2363 5.97069ZM12.9238 8.39647L12.8746 8.36466L12.8115 8.46221L12.9275 8.45495L12.9238 8.39647ZM13.709 8.32616L13.7156 8.3844L13.7164 8.38428L13.7171 8.38423L13.709 8.32616ZM15.1621 8.08007H15.2207V8.00987L15.1516 8.02241L15.1621 8.08007ZM15.1621 9.39257L15.1511 9.45011L15.2207 9.46346V9.39257H15.1621ZM12.7129 9.06444L12.7141 9.00585L12.6476 9.00456L12.6546 9.07065L12.7129 9.06444ZM13.252 14.1504V14.209H13.3171L13.3102 14.1442L13.252 14.1504ZM12.3027 8.40819L12.2504 8.43438L12.2665 8.46679H12.3027V8.40819ZM12.6309 8.40819V8.46679H12.7289L12.6824 8.38042L12.6309 8.40819ZM12.2324 7.68163L12.1809 7.70952L12.1812 7.71011L12.2324 7.68163ZM11.7402 6.75585L11.6879 6.78204L11.6881 6.78257L11.6883 6.78303L11.7402 6.75585ZM11.2715 5.77147L11.2179 5.79514L11.2181 5.79561L11.2715 5.77147ZM10.9082 4.82225L10.8522 4.83948L10.8523 4.83989L10.9082 4.82225ZM11.0371 3.18164L10.9933 3.14271L10.9932 3.14282L11.0371 3.18164ZM13.2285 2.73633L13.21 2.79192L13.2105 2.79207L13.2285 2.73633ZM13.9082 3.18164L13.8644 3.22056L13.8648 3.22097L13.8651 3.22138L13.9082 3.18164ZM14.0254 4.88085L13.9698 4.86233L13.9697 4.86274L13.9696 4.86315L14.0254 4.88085ZM13.627 5.90038L13.68 5.92516L13.6803 5.9247L13.627 5.90038ZM12.6074 7.88085L12.5562 7.85243L12.5401 7.88138L12.5567 7.91014L12.6074 7.88085ZM12.7832 8.18553L12.7325 8.21483L12.7831 8.30266L12.8339 8.21489L12.7832 8.18553ZM13.123 7.5996L13.0727 7.56972L13.0724 7.57018L13.123 7.5996ZM13.5918 6.76757L13.6434 6.79534L13.6437 6.79481L13.5918 6.76757ZM14.0488 5.80663L13.9954 5.78249L13.9952 5.78302L13.995 5.78354L14.0488 5.80663ZM14.4004 4.85741L14.3444 4.84018L14.3442 4.84083L14.344 4.84153L14.4004 4.85741ZM13.4746 2.43164L13.454 2.4865L13.4545 2.48667L13.4746 2.43164ZM10.709 2.99414L10.6629 2.95788L10.6626 2.95831L10.6623 2.95876L10.709 2.99414ZM10.6035 5.02147L10.5479 5.03999L10.548 5.04034L10.6035 5.02147ZM11.0605 6.15819L11.0073 6.18268L11.0076 6.18333L11.0079 6.18397L11.0605 6.15819ZM11.6113 7.23632L11.5596 7.26397L11.5599 7.26444L11.5602 7.26491L11.6113 7.23632ZM12.0918 8.06835L12.0417 8.09876L12.0419 8.09917L12.0422 8.09958L12.0918 8.06835ZM12.4785 7.64647L12.427 7.67436L12.4785 7.7697L12.5301 7.67436L12.4785 7.64647ZM13.709 3.31055L13.6656 3.34996L13.6661 3.35048L13.6666 3.351L13.709 3.31055ZM13.1348 2.94727L13.1157 3.00265L13.1165 3.00295L13.1174 3.00322L13.1348 2.94727ZM11.8105 2.94727L11.8279 3.00322L11.8285 3.00304L11.8291 3.00285L11.8105 2.94727ZM11.2246 3.31055L11.1822 3.27009L11.1817 3.2706L11.1812 3.27113L11.2246 3.31055ZM11.9746 6.70897L11.9225 6.73569L11.9227 6.73616L11.9229 6.73663L11.9746 6.70897ZM10.0059 9.11132H9.94727V9.18151L10.0163 9.16897L10.0059 9.11132ZM10.6621 9.00585L10.6706 9.06386L10.6713 9.06374L10.672 9.06362L10.6621 9.00585ZM11.541 8.88866L11.5468 8.94696L11.5475 8.9469L11.5481 8.94684L11.541 8.88866ZM13.3809 8.88866L13.3736 8.94678L13.3744 8.9469L13.3752 8.94696L13.3809 8.88866ZM14.2715 9.00585L14.2616 9.06362L14.2624 9.06374L14.2632 9.06386L14.2715 9.00585ZM14.9277 9.11132L14.9168 9.16891L14.9863 9.18216V9.11132H14.9277ZM14.9277 8.36132H14.9863V8.29071L14.917 8.30372L14.9277 8.36132ZM14.3301 8.46679L14.3383 8.52479L14.3392 8.52468L14.34 8.52456L14.3301 8.46679ZM13.416 8.58397L13.4092 8.52579H13.4091L13.416 8.58397ZM11.6934 8.59569L11.6872 8.65399H11.6874L11.6934 8.59569ZM10.791 8.49022L10.7819 8.54811L10.7827 8.54823L10.7836 8.54835L10.791 8.49022ZM10.0059 8.36132L10.0158 8.3036L9.94727 8.29177V8.36132H10.0059ZM11.9629 13.9277L11.9046 13.9216L11.8977 13.9863H11.9629V13.9277ZM12.9941 13.9277V13.9863H13.0608L13.0523 13.9203L12.9941 13.9277ZM12.4785 9.06444L12.5366 9.05718L12.4203 9.05829L12.4785 9.06444ZM11.6934 14.1504L11.7516 14.1566L12.2907 9.07065L12.2324 9.06444L12.1742 9.05829L11.6351 14.1442L11.6934 14.1504ZM12.2324 9.06444L12.2312 9.00585C11.8376 9.01376 11.4169 9.05307 10.9694 9.12374L10.9785 9.18163L10.9877 9.23952C11.4307 9.16956 11.846 9.13077 12.2336 9.12303L12.2324 9.06444ZM10.9785 9.18163L10.9692 9.1238C10.5315 9.19411 10.1328 9.26055 9.77318 9.32313L9.7832 9.38085L9.79322 9.43856C10.1523 9.37616 10.5505 9.30977 10.9878 9.23946L10.9785 9.18163ZM9.7832 9.38085H9.8418V8.08007H9.7832H9.72461V9.38085H9.7832ZM9.7832 8.08007L9.77318 8.13778C9.95266 8.16901 10.1713 8.20804 10.429 8.25491L10.4395 8.19725L10.4499 8.1396C10.192 8.09272 9.97311 8.05364 9.79322 8.02235L9.7832 8.08007ZM10.4395 8.19725L10.429 8.25491C10.6875 8.3019 10.9539 8.34503 11.2281 8.38417L11.2363 8.32616L11.2446 8.26815C10.9719 8.22919 10.707 8.18636 10.4499 8.1396L10.4395 8.19725ZM11.2363 8.32616L11.2299 8.3844C11.5118 8.41575 11.7745 8.43925 12.0177 8.45495L12.0215 8.39647L12.0252 8.338C11.7841 8.32247 11.5233 8.29909 11.2428 8.26792L11.2363 8.32616ZM12.0215 8.39647L12.072 8.36677C11.9938 8.23388 11.8804 8.04239 11.732 7.79237L11.6816 7.82225L11.6312 7.8522C11.7797 8.10216 11.8929 8.29346 11.971 8.42618L12.0215 8.39647ZM11.6816 7.82225L11.732 7.79237C11.5841 7.54323 11.4244 7.25882 11.2528 6.93907L11.2012 6.96678L11.1496 6.9945C11.3217 7.31536 11.4823 7.6013 11.6312 7.8522L11.6816 7.82225ZM11.2012 6.96678L11.2528 6.93907C11.0816 6.61997 10.918 6.28909 10.7623 5.94643L10.709 5.97069L10.6557 5.99495C10.8124 6.33983 10.9771 6.673 11.1496 6.9945L11.2012 6.96678ZM10.709 5.97069L10.7625 5.9469C10.6071 5.59722 10.4791 5.25954 10.3782 4.93382L10.3223 4.95116L10.2663 4.9685C10.3686 5.29909 10.4983 5.6411 10.6554 5.99448L10.709 5.97069ZM10.3223 4.95116L10.3787 4.9354C10.286 4.60329 10.2402 4.30399 10.2402 4.0371H10.1816H10.123C10.123 4.31712 10.171 4.6272 10.2658 4.96692L10.3223 4.95116ZM10.1816 4.0371H10.2402C10.2402 3.55328 10.3478 3.17218 10.5569 2.88827L10.5098 2.85352L10.4626 2.81876C10.2343 3.1286 10.123 3.53656 10.123 4.0371H10.1816ZM10.5098 2.85352L10.5569 2.88827C10.7686 2.60092 11.0442 2.39704 11.3849 2.27591L11.3652 2.2207L11.3456 2.16549C10.9831 2.29436 10.6884 2.51235 10.4626 2.81876L10.5098 2.85352ZM11.3652 2.2207L11.3859 2.27551C11.7306 2.1453 12.0947 2.08008 12.4785 2.08008V2.02148V1.96289C12.0811 1.96289 11.703 2.03048 11.3446 2.16589L11.3652 2.2207ZM12.4785 2.02148V2.08008C12.8624 2.08008 13.2224 2.1453 13.559 2.27536L13.5801 2.2207L13.6012 2.16605C13.2503 2.03048 12.8759 1.96289 12.4785 1.96289V2.02148ZM13.5801 2.2207L13.5604 2.27591C13.9011 2.39704 14.1766 2.60092 14.3884 2.88827L14.4355 2.85352L14.4827 2.81876C14.257 2.51235 13.9622 2.29436 13.5997 2.16549L13.5801 2.2207ZM14.4355 2.85352L14.389 2.88906C14.6056 3.1729 14.7168 3.55368 14.7168 4.0371H14.7754H14.834C14.834 3.53616 14.7186 3.12788 14.4821 2.81797L14.4355 2.85352ZM14.7754 4.0371H14.7168C14.7168 4.30347 14.6673 4.60229 14.567 4.93423L14.623 4.95116L14.6791 4.96815C14.7819 4.62819 14.834 4.31764 14.834 4.0371H14.7754ZM14.623 4.95116L14.5671 4.93382C14.4662 5.25954 14.3382 5.59722 14.1828 5.9469L14.2363 5.97069L14.2899 5.99448C14.447 5.6411 14.5767 5.29909 14.679 4.9685L14.623 4.95116ZM14.2363 5.97069L14.1825 5.94749C14.0347 6.28973 13.8753 6.62026 13.7042 6.93907L13.7559 6.96678L13.8075 6.9945C13.9802 6.6727 14.1411 6.33913 14.2901 5.99395L14.2363 5.97069ZM13.7559 6.96678L13.7042 6.93907C13.5327 7.25882 13.3729 7.54323 13.225 7.79237L13.2754 7.82225L13.3258 7.8522C13.4747 7.6013 13.6353 7.31536 13.8075 6.9945L13.7559 6.96678ZM13.2754 7.82225L13.225 7.79237C13.0767 8.04216 12.96 8.23276 12.8746 8.36466L12.9238 8.39647L12.973 8.42829C13.0596 8.29458 13.1772 8.10239 13.3258 7.8522L13.2754 7.82225ZM12.9238 8.39647L12.9275 8.45495C13.1786 8.43925 13.4413 8.41575 13.7156 8.3844L13.709 8.32616L13.7023 8.26798C13.4298 8.29909 13.1691 8.32247 12.9202 8.338L12.9238 8.39647ZM13.709 8.32616L13.7171 8.38423C13.999 8.34503 14.2694 8.30196 14.5281 8.25491L14.5176 8.19725L14.5071 8.1396C14.2502 8.18636 13.9814 8.22919 13.7009 8.26815L13.709 8.32616ZM14.5176 8.19725L14.5281 8.25491C14.7859 8.20804 15.0007 8.16895 15.1726 8.13772L15.1621 8.08007L15.1516 8.02241C14.9798 8.0537 14.7649 8.09272 14.5071 8.1396L14.5176 8.19725ZM15.1621 8.08007H15.1035V9.39257H15.1621H15.2207V8.08007H15.1621ZM15.1621 9.39257L15.1731 9.33503C14.8053 9.2646 14.4023 9.19417 13.9644 9.1238L13.9551 9.18163L13.9458 9.23946C14.3828 9.30971 14.7846 9.37991 15.1511 9.45011L15.1621 9.39257ZM13.9551 9.18163L13.9644 9.1238C13.5245 9.05307 13.1078 9.01376 12.7141 9.00585L12.7129 9.06444L12.7117 9.12303C13.0993 9.13077 13.5106 9.16956 13.9458 9.23946L13.9551 9.18163ZM12.7129 9.06444L12.6546 9.07065L13.1937 14.1566L13.252 14.1504L13.3102 14.1442L12.7711 9.05829L12.7129 9.06444ZM13.252 14.1504V14.0918H11.6934V14.1504V14.209H13.252V14.1504ZM12.3027 8.40819V8.46679H12.6309V8.40819V8.3496H12.3027V8.40819ZM12.6309 8.40819L12.6824 8.38042C12.5729 8.17698 12.44 7.93458 12.2836 7.65321L12.2324 7.68163L12.1812 7.71011C12.3374 7.99118 12.4701 8.23317 12.5792 8.43596L12.6309 8.40819ZM12.2324 7.68163L12.284 7.6538C12.1278 7.36499 11.9639 7.05661 11.7921 6.72866L11.7402 6.75585L11.6883 6.78303C11.8603 7.11139 12.0245 7.42018 12.1809 7.70952L12.2324 7.68163ZM11.7402 6.75585L11.7926 6.72966C11.6289 6.40218 11.473 6.07475 11.3249 5.74733L11.2715 5.77147L11.2181 5.79561C11.3669 6.12444 11.5234 6.45327 11.6879 6.78204L11.7402 6.75585ZM11.2715 5.77147L11.3251 5.7478C11.1774 5.41346 11.0571 5.09911 10.9641 4.80462L10.9082 4.82225L10.8523 4.83989C10.9468 5.13919 11.0687 5.45759 11.2179 5.79514L11.2715 5.77147ZM10.9082 4.82225L10.9642 4.80503C10.8715 4.50362 10.8262 4.24804 10.8262 4.0371H10.7676H10.709C10.709 4.26368 10.7574 4.53151 10.8522 4.83948L10.9082 4.82225ZM10.7676 4.0371H10.8262C10.8262 3.67911 10.9137 3.40958 11.081 3.22046L11.0371 3.18164L10.9932 3.14282C10.8012 3.35994 10.709 3.66073 10.709 4.0371H10.7676ZM11.0371 3.18164L11.0809 3.22056C11.2615 3.01734 11.4793 2.87476 11.7348 2.79207L11.7168 2.73633L11.6987 2.68058C11.4231 2.76976 11.1877 2.92406 10.9933 3.14271L11.0371 3.18164ZM11.7168 2.73633L11.7348 2.79207C11.9955 2.70774 12.2433 2.66602 12.4785 2.66602V2.60742V2.54883C12.2294 2.54883 11.9693 2.59304 11.6987 2.68058L11.7168 2.73633ZM12.4785 2.60742V2.66602C12.7137 2.66602 12.9574 2.70773 13.21 2.79192L13.2285 2.73633L13.247 2.68074C12.984 2.59305 12.7277 2.54883 12.4785 2.54883V2.60742ZM13.2285 2.73633L13.2105 2.79207C13.4661 2.87476 13.6838 3.01734 13.8644 3.22056L13.9082 3.18164L13.952 3.14271C13.7576 2.92406 13.5222 2.76976 13.2466 2.68058L13.2285 2.73633ZM13.9082 3.18164L13.8651 3.22138C14.0397 3.41053 14.1309 3.67971 14.1309 4.0371H14.1895H14.248C14.248 3.66013 14.1517 3.359 13.9513 3.1419L13.9082 3.18164ZM14.1895 4.0371H14.1309C14.1309 4.26298 14.0781 4.53761 13.9698 4.86233L14.0254 4.88085L14.081 4.89936C14.1915 4.56784 14.248 4.28003 14.248 4.0371H14.1895ZM14.0254 4.88085L13.9696 4.86315C13.8688 5.18085 13.7369 5.51846 13.5736 5.87606L13.627 5.90038L13.6803 5.9247C13.8452 5.56358 13.9789 5.22151 14.0812 4.89854L14.0254 4.88085ZM13.627 5.90038L13.5739 5.87559C13.4102 6.22639 13.2387 6.57327 13.0594 6.91622L13.1113 6.94335L13.1632 6.97048C13.3434 6.62595 13.5156 6.27755 13.68 5.92516L13.627 5.90038ZM13.1113 6.94335L13.0594 6.91622C12.8799 7.25964 12.7122 7.57165 12.5562 7.85243L12.6074 7.88085L12.6586 7.90932C12.8152 7.62755 12.9834 7.3146 13.1632 6.97048L13.1113 6.94335ZM12.6074 7.88085L12.5567 7.91014L12.7325 8.21483L12.7832 8.18553L12.8339 8.15624L12.6582 7.85155L12.6074 7.88085ZM12.7832 8.18553L12.8339 8.21489C12.9198 8.06647 13.0331 7.87118 13.1737 7.62901L13.123 7.5996L13.0724 7.57018C12.9317 7.81241 12.8184 8.0077 12.7325 8.15618L12.7832 8.18553ZM13.123 7.5996L13.1734 7.62954C13.3223 7.3787 13.479 7.10061 13.6434 6.79534L13.5918 6.76757L13.5402 6.73979C13.3765 7.04389 13.2206 7.32052 13.0727 7.56972L13.123 7.5996ZM13.5918 6.76757L13.6437 6.79481C13.8085 6.48093 13.9615 6.15925 14.1027 5.82971L14.0488 5.80663L13.995 5.78354C13.8549 6.11026 13.7032 6.42919 13.5399 6.74032L13.5918 6.76757ZM14.0488 5.80663L14.1022 5.83077C14.2517 5.50036 14.3699 5.1812 14.4568 4.87335L14.4004 4.85741L14.344 4.84153C14.2589 5.14305 14.1428 5.45665 13.9954 5.78249L14.0488 5.80663ZM14.4004 4.85741L14.4564 4.87464C14.5513 4.56602 14.5996 4.28665 14.5996 4.0371H14.541H14.4824C14.4824 4.27194 14.437 4.53942 14.3444 4.84018L14.4004 4.85741ZM14.541 4.0371H14.5996C14.5996 3.59129 14.5001 3.22981 14.2947 2.95876L14.248 2.99414L14.2013 3.02952C14.3866 3.2741 14.4824 3.60793 14.4824 4.0371H14.541ZM14.248 2.99414L14.2947 2.95876C14.0922 2.69148 13.825 2.49744 13.4948 2.37661L13.4746 2.43164L13.4545 2.48667C13.7648 2.60021 14.0132 2.78117 14.2013 3.02952L14.248 2.99414ZM13.4746 2.43164L13.4952 2.37677C13.1758 2.25699 12.8367 2.19727 12.4785 2.19727V2.25586V2.31445C12.8234 2.31445 13.1485 2.37191 13.454 2.4865L13.4746 2.43164ZM12.4785 2.25586V2.19727C12.1203 2.19727 11.7813 2.25699 11.4619 2.37677L11.4824 2.43164L11.503 2.4865C11.8086 2.37191 12.1336 2.31445 12.4785 2.31445V2.25586ZM11.4824 2.43164L11.4619 2.37677C11.1395 2.49765 10.8728 2.6915 10.6629 2.95788L10.709 2.99414L10.755 3.0304C10.9514 2.78115 11.2004 2.6 11.503 2.4865L11.4824 2.43164ZM10.709 2.99414L10.6623 2.95876C10.4569 3.22981 10.3574 3.59129 10.3574 4.0371H10.416H10.4746C10.4746 3.60793 10.5704 3.2741 10.7557 3.02952L10.709 2.99414ZM10.416 4.0371H10.3574C10.3574 4.32661 10.4217 4.66124 10.5479 5.03999L10.6035 5.02147L10.6591 5.00296C10.5354 4.63171 10.4746 4.31009 10.4746 4.0371H10.416ZM10.6035 5.02147L10.548 5.04034C10.6738 5.40966 10.8269 5.79046 11.0073 6.18268L11.0605 6.15819L11.1137 6.1337C10.9349 5.74469 10.7833 5.3677 10.659 5.00261L10.6035 5.02147ZM11.0605 6.15819L11.0079 6.18397C11.1957 6.56735 11.3796 6.92735 11.5596 7.26397L11.6113 7.23632L11.663 7.20872C11.4837 6.87344 11.3004 6.51468 11.1132 6.13241L11.0605 6.15819ZM11.6113 7.23632L11.5602 7.26491C11.7479 7.60118 11.9084 7.87921 12.0417 8.09876L12.0918 8.06835L12.1419 8.03794C12.0096 7.82003 11.8498 7.54335 11.6625 7.20778L11.6113 7.23632ZM12.0918 8.06835L12.0422 8.09958C12.1086 8.20499 12.1593 8.28597 12.1943 8.34245C12.2119 8.37069 12.2254 8.39266 12.2351 8.40854C12.2399 8.41645 12.2436 8.42272 12.2463 8.42735C12.2493 8.43251 12.2504 8.43438 12.2504 8.43438L12.3027 8.40819L12.3551 8.382C12.3497 8.37104 12.328 8.33554 12.2939 8.28063C12.2587 8.2238 12.2078 8.14264 12.1414 8.03712L12.0918 8.06835ZM12.4785 7.64647L12.5301 7.67436C12.6865 7.38485 12.8508 7.07196 13.0229 6.73569L12.9707 6.70897L12.9186 6.68231C12.7468 7.01788 12.583 7.33001 12.427 7.61864L12.4785 7.64647ZM12.9707 6.70897L13.0229 6.73569C13.1952 6.39878 13.3558 6.0618 13.5048 5.72483L13.4512 5.70116L13.3976 5.67749C13.2496 6.01241 13.0899 6.34733 12.9186 6.68231L12.9707 6.70897ZM13.4512 5.70116L13.5048 5.72483C13.6538 5.38745 13.7757 5.07304 13.8702 4.78177L13.8145 4.76366L13.7587 4.74561C13.6657 5.03243 13.5454 5.34304 13.3976 5.67749L13.4512 5.70116ZM13.8145 4.76366L13.8702 4.78177C13.9649 4.48973 14.0137 4.241 14.0137 4.0371H13.9551H13.8965C13.8965 4.22384 13.8515 4.4595 13.7587 4.74561L13.8145 4.76366ZM13.9551 4.0371H14.0137C14.0137 3.71443 13.9288 3.45595 13.7513 3.27009L13.709 3.31055L13.6666 3.351C13.8173 3.50889 13.8965 3.73478 13.8965 4.0371H13.9551ZM13.709 3.31055L13.7523 3.27113C13.5889 3.09135 13.3885 2.96464 13.1521 2.8913L13.1348 2.94727L13.1174 3.00322C13.3342 3.07051 13.5166 3.18599 13.6656 3.34996L13.709 3.31055ZM13.1348 2.94727L13.1539 2.89187C12.922 2.81191 12.6968 2.77148 12.4785 2.77148V2.83008V2.88867C12.6821 2.88867 12.8944 2.92637 13.1157 3.00265L13.1348 2.94727ZM12.4785 2.83008V2.77148C12.2603 2.77148 12.0314 2.81189 11.792 2.89168L11.8105 2.94727L11.8291 3.00285C12.0585 2.92638 12.2748 2.88867 12.4785 2.88867V2.83008ZM11.8105 2.94727L11.7932 2.8913C11.5571 2.96457 11.3532 3.09101 11.1822 3.27009L11.2246 3.31055L11.267 3.351C11.4242 3.18633 11.6109 3.07058 11.8279 3.00322L11.8105 2.94727ZM11.2246 3.31055L11.1812 3.27113C11.0122 3.45705 10.9316 3.71514 10.9316 4.0371H10.9902H11.0488C11.0488 3.73407 11.1245 3.50779 11.268 3.34996L11.2246 3.31055ZM10.9902 4.0371H10.9316C10.9316 4.241 10.9804 4.48973 11.0751 4.78177L11.1309 4.76366L11.1866 4.74561C11.0938 4.4595 11.0488 4.22384 11.0488 4.0371H10.9902ZM11.1309 4.76366L11.0751 4.78177C11.1696 5.07304 11.2915 5.38745 11.4405 5.72483L11.4941 5.70116L11.5478 5.67749C11.3999 5.34304 11.2796 5.03243 11.1866 4.74561L11.1309 4.76366ZM11.4941 5.70116L11.4405 5.72483C11.5894 6.0618 11.7501 6.39878 11.9225 6.73569L11.9746 6.70897L12.0268 6.68231C11.8554 6.34733 11.6957 6.01241 11.5478 5.67749L11.4941 5.70116ZM11.9746 6.70897L11.9229 6.73663C12.1026 7.07261 12.2707 7.3852 12.427 7.67436L12.4785 7.64647L12.5301 7.61864C12.3739 7.32966 12.2059 7.01723 12.0263 6.68137L11.9746 6.70897ZM10.0059 9.11132L10.0163 9.16897C10.1873 9.13786 10.4054 9.10282 10.6706 9.06386L10.6621 9.00585L10.6536 8.9479C10.3876 8.98698 10.1682 9.02225 9.99537 9.05366L10.0059 9.11132ZM10.6621 9.00585L10.672 9.06362C10.9439 9.01698 11.2355 8.97813 11.5468 8.94696L11.541 8.88866L11.5352 8.83036C11.2215 8.86171 10.9271 8.90096 10.6522 8.94813L10.6621 9.00585ZM11.541 8.88866L11.5481 8.94684C11.8663 8.90805 12.1725 8.88866 12.4668 8.88866V8.83007V8.77147C12.1674 8.77147 11.8564 8.79116 11.5339 8.83053L11.541 8.88866ZM12.4668 8.83007V8.88866C12.7611 8.88866 13.0633 8.90805 13.3736 8.94678L13.3809 8.88866L13.3881 8.83053C13.0734 8.79116 12.7662 8.77147 12.4668 8.77147V8.83007ZM13.3809 8.88866L13.3752 8.94696C13.6943 8.97813 13.9898 9.01698 14.2616 9.06362L14.2715 9.00585L14.2814 8.94813C14.0063 8.90096 13.708 8.86171 13.3865 8.83036L13.3809 8.88866ZM14.2715 9.00585L14.2632 9.06386C14.5362 9.10288 14.754 9.13786 14.9168 9.16891L14.9277 9.11132L14.9387 9.05378C14.7733 9.02225 14.5536 8.98698 14.2797 8.94784L14.2715 9.00585ZM14.9277 9.11132H14.9863V8.36132H14.9277H14.8691V9.11132H14.9277ZM14.9277 8.36132L14.917 8.30372C14.7924 8.3271 14.5936 8.3622 14.3202 8.40907L14.3301 8.46679L14.34 8.52456C14.6134 8.47768 14.8131 8.44247 14.9385 8.41891L14.9277 8.36132ZM14.3301 8.46679L14.3218 8.40878C14.0489 8.44774 13.7448 8.48677 13.4092 8.52579L13.416 8.58397L13.4228 8.64216C13.7591 8.60307 14.0643 8.56393 14.3383 8.52479L14.3301 8.46679ZM13.416 8.58397L13.4091 8.52579C13.0831 8.56464 12.769 8.58397 12.4668 8.58397V8.64257V8.70116C12.774 8.70116 13.0927 8.68147 13.4229 8.64216L13.416 8.58397ZM12.4668 8.64257V8.58397C12.2585 8.58397 12.0029 8.56856 11.6993 8.53739L11.6934 8.59569L11.6874 8.65399C11.9932 8.68534 12.2532 8.70116 12.4668 8.70116V8.64257ZM11.6934 8.59569L11.6995 8.53745C11.4031 8.50622 11.1027 8.47112 10.7985 8.4321L10.791 8.49022L10.7836 8.54835C11.0887 8.58749 11.3899 8.6227 11.6872 8.65399L11.6934 8.59569ZM10.791 8.49022L10.8002 8.43233C10.5035 8.38552 10.2421 8.34257 10.0158 8.3036L10.0059 8.36132L9.9959 8.41909C10.2228 8.45817 10.4848 8.50118 10.7819 8.54811L10.791 8.49022ZM10.0059 8.36132H9.94727V9.11132H10.0059H10.0645V8.36132H10.0059ZM11.9629 13.9277V13.9863H12.9941V13.9277V13.8691H11.9629V13.9277ZM12.9941 13.9277L13.0523 13.9203C12.9508 13.132 12.8649 12.3282 12.7947 11.5087L12.7363 11.5137L12.678 11.5187C12.7483 12.3398 12.8344 13.1453 12.936 13.9352L12.9941 13.9277ZM12.7363 11.5137L12.7947 11.5087C12.7243 10.6876 12.6383 9.87046 12.5366 9.05718L12.4785 9.06444L12.4204 9.07171C12.5218 9.88347 12.6077 10.6991 12.678 11.5187L12.7363 11.5137ZM12.4785 9.06444L12.4203 9.05829L11.9046 13.9216L11.9629 13.9277L12.0211 13.9339L12.5368 9.07065L12.4785 9.06444Z" fill="white"/>
</g>
</g>
<defs>
<clipPath id="clip0_3037_642">
<rect width="25" height="25" fill="white"/>
</clipPath>
</defs>
</svg>
