<svg width="20" height="21" viewBox="0 0 20 21" fill="none" xmlns="http://www.w3.org/2000/svg">
<g id="Frame" clip-path="url(#clip0_337_318)">
<g id="Group">
<path id="Vector" d="M9.99951 2.84335C9.67592 2.84335 9.41357 3.1057 9.41357 3.42929C9.41357 3.75288 9.67592 4.01523 9.99951 4.01523C11.9383 4.01523 13.5157 5.59234 13.5157 7.53085C13.5157 7.85445 13.7781 8.11679 14.1017 8.11679C14.4253 8.11679 14.6876 7.85445 14.6876 7.53085C14.6876 4.94617 12.5846 2.84335 9.99951 2.84335Z" fill="white"/>
<path id="Vector_2" d="M8.48965 0.657418C5.84238 1.21058 3.6959 3.33652 3.13109 6.00023C2.65418 8.24953 3.24187 10.5077 4.74348 12.1958C5.4775 13.0209 5.89844 14.1101 5.89844 15.1871V16.359C5.89844 17.1387 6.40887 17.8011 7.11301 18.0305C7.34457 19.3986 8.53207 20.4996 10 20.4996C11.4675 20.4996 12.6554 19.399 12.887 18.0305C13.5911 17.8011 14.1016 17.1387 14.1016 16.3589V15.1871C14.1016 14.108 14.5239 13.0319 15.2907 12.157C16.4129 10.8772 17.0315 9.233 17.0312 7.53086C17.0312 3.09472 12.9707 -0.278754 8.48965 0.657418ZM10 19.3277C9.2468 19.3277 8.58641 18.8095 8.34254 18.1129H11.6574C11.4136 18.8095 10.7532 19.3277 10 19.3277ZM12.9297 16.359C12.9297 16.6821 12.6668 16.9449 12.3438 16.9449H7.65625C7.33316 16.9449 7.07031 16.6821 7.07031 16.359V15.773H12.9297V16.359ZM14.4095 11.3846C13.5923 12.3169 13.0895 13.4412 12.9619 14.6012H7.0382C6.91078 13.4405 6.4093 12.3053 5.61914 11.4169C4.36766 10.0101 3.87863 8.12433 4.2775 6.24332C4.74309 4.04746 6.53215 2.26367 8.72937 1.80457C12.4803 1.0207 15.8594 3.83757 15.8594 7.53086C15.8596 8.9488 15.3442 10.3185 14.4095 11.3846ZM1.75781 7.53086H0.585938C0.262344 7.53086 0 7.7932 0 8.11679C0 8.44039 0.262344 8.70273 0.585938 8.70273H1.75781C2.08141 8.70273 2.34375 8.44039 2.34375 8.11679C2.34375 7.7932 2.08141 7.53086 1.75781 7.53086ZM2.00051 4.60117L1.17188 3.77254C0.943086 3.54371 0.57207 3.54371 0.343242 3.77254C0.114414 4.00136 0.114414 4.37234 0.343242 4.60117L1.17188 5.4298C1.40066 5.65863 1.77168 5.65867 2.00051 5.4298C2.22934 5.20097 2.22934 4.83 2.00051 4.60117ZM2.00051 10.8038C1.77168 10.575 1.40066 10.575 1.17188 10.8038L0.343242 11.6324C0.114414 11.8612 0.114414 12.2322 0.343242 12.4611C0.572031 12.6899 0.943047 12.6899 1.17188 12.4611L2.00051 11.6324C2.22934 11.4036 2.22934 11.0326 2.00051 10.8038ZM19.4141 7.53086H18.2422C17.9186 7.53086 17.6562 7.7932 17.6562 8.11679C17.6562 8.44039 17.9186 8.70273 18.2422 8.70273H19.4141C19.7377 8.70273 20 8.44039 20 8.11679C20 7.7932 19.7377 7.53086 19.4141 7.53086ZM19.6568 3.77254C19.428 3.54371 19.057 3.54371 18.8281 3.77254L17.9995 4.60117C17.7707 4.83 17.7707 5.20097 17.9995 5.4298C18.2283 5.65859 18.5993 5.65863 18.8281 5.4298L19.6568 4.60117C19.8856 4.37234 19.8856 4.00136 19.6568 3.77254ZM19.6568 11.6324L18.8281 10.8038C18.5993 10.575 18.2283 10.575 17.9995 10.8038C17.7707 11.0326 17.7707 11.4036 17.9995 11.6324L18.8281 12.4611C19.0569 12.6898 19.4279 12.6899 19.6568 12.4611C19.8856 12.2322 19.8856 11.8612 19.6568 11.6324Z" fill="white"/>
</g>
</g>
<defs>
<clipPath id="clip0_337_318">
<rect width="20" height="20" fill="white" transform="translate(0 0.5)"/>
</clipPath>
</defs>
</svg>
