<svg width="14" height="22" viewBox="0 0 14 22" fill="none" xmlns="http://www.w3.org/2000/svg">
<g id="Group">
<path id="Vector" d="M0.480815 11.8199C0.480815 11.4577 0.759209 11.164 1.10268 11.164C1.44611 11.164 1.72455 11.4577 1.72455 11.8199C1.72455 15.0292 4.19886 17.6398 7.24051 17.6398C10.282 17.6398 12.7563 15.0292 12.7563 11.8199C12.7563 11.4577 13.0347 11.164 13.3781 11.164C13.7216 11.164 14 11.4577 14 11.8199C14 15.5315 11.2991 18.5892 7.86238 18.9215V20.6878H10.1699C10.5134 20.6878 10.7918 20.9815 10.7918 21.3439C10.7918 21.7063 10.5134 22 10.1699 22H4.31081C3.9675 22 3.68911 21.7063 3.68911 21.3439C3.68911 20.9815 3.9675 20.6877 4.31081 20.6877H6.61864V18.9215C3.18168 18.5894 0.480815 15.5315 0.480815 11.8199Z" fill="#E7B133"/>
<path id="Vector_2" d="M7.24047 16.021C5.045 16.021 3.25881 14.1364 3.25881 11.8199V4.20087C3.25881 1.88455 5.045 -1.52588e-05 7.24047 -1.52588e-05C9.43578 -1.52588e-05 11.2219 1.88459 11.2219 4.20087V11.8199C11.2219 14.1364 9.43574 16.021 7.24047 16.021ZM9.97839 4.20087C9.97839 2.60802 8.75014 1.31221 7.24047 1.31221C5.7308 1.31221 4.50255 2.60797 4.50255 4.20087V11.8199C4.50255 13.4128 5.7308 14.7087 7.24047 14.7087C8.75014 14.7087 9.97839 13.4128 9.97839 11.8199V4.20087Z" fill="#E7B133"/>
</g>
</svg>
