<svg width="20" height="21" viewBox="0 0 20 21" fill="none" xmlns="http://www.w3.org/2000/svg">
<g id="Frame">
<g id="Group">
<g id="Layer 2">
<path id="Vector" d="M10 19.3392C9.75198 19.3389 9.50814 19.2752 9.29167 19.1542L6.48333 17.5942C5.08712 16.8179 3.9237 15.6827 3.11349 14.3059C2.30327 12.9291 1.87569 11.3608 1.875 9.76334V5.43334C1.87496 5.07302 2.00854 4.7255 2.2499 4.45797C2.49126 4.19044 2.82325 4.02192 3.18167 3.985C4.29902 3.86657 5.39871 3.61794 6.45833 3.24417C7.42986 2.90074 8.36184 2.45431 9.23833 1.9125C9.46761 1.77219 9.73119 1.69794 10 1.69794C10.2688 1.69794 10.5324 1.77219 10.7617 1.9125C11.6382 2.45416 12.5702 2.90058 13.5417 3.24417C14.6013 3.61794 15.701 3.86657 16.8183 3.985C17.1767 4.02192 17.5087 4.19044 17.7501 4.45797C17.9915 4.7255 18.125 5.07302 18.125 5.43334V9.76334C18.1243 11.3608 17.6967 12.9291 16.8865 14.3059C16.0763 15.6827 14.9129 16.8179 13.5167 17.5942L10.7083 19.155C10.4918 19.2758 10.248 19.3392 10 19.3392ZM10 2.9475C9.96333 2.94718 9.92729 2.95698 9.89583 2.97584C8.94332 3.56455 7.93063 4.04981 6.875 4.42334C5.72355 4.82974 4.52846 5.09991 3.31417 5.22834C3.26259 5.23272 3.21453 5.2563 3.1795 5.29442C3.14447 5.33253 3.12502 5.3824 3.125 5.43417V9.76417C3.12545 11.1388 3.49326 12.4883 4.19038 13.673C4.8875 14.8577 5.88858 15.8346 7.09 16.5025L9.89833 18.0625C9.92912 18.0798 9.96385 18.0889 9.99917 18.0889C10.0345 18.0889 10.0692 18.0798 10.1 18.0625L12.91 16.5025C14.1114 15.8346 15.1125 14.8577 15.8096 13.673C16.5067 12.4883 16.8746 11.1388 16.875 9.76417V5.43334C16.875 5.38157 16.8555 5.3317 16.8205 5.29358C16.7855 5.25547 16.7374 5.23189 16.6858 5.2275C15.4715 5.09908 14.2765 4.8289 13.125 4.4225C12.0694 4.04951 11.0568 3.56481 10.1042 2.97667C10.0729 2.95736 10.0368 2.94725 10 2.9475Z" fill="white"/>
<path id="Vector_2" d="M9.58341 12.375C9.4303 12.3751 9.28253 12.3188 9.16841 12.2167L7.29341 10.55C7.17715 10.438 7.10874 10.2853 7.10252 10.124C7.09629 9.9627 7.15273 9.80522 7.26001 9.68458C7.36729 9.56395 7.5171 9.4895 7.67804 9.47684C7.83899 9.46418 7.99859 9.51429 8.12341 9.61667L9.54341 10.8783L12.2526 7.98917C12.3084 7.92791 12.3758 7.87835 12.4509 7.84338C12.526 7.8084 12.6073 7.78871 12.6901 7.78544C12.7729 7.78218 12.8555 7.7954 12.9331 7.82435C13.0107 7.8533 13.0818 7.8974 13.1423 7.95408C13.2027 8.01075 13.2512 8.07888 13.2851 8.15449C13.319 8.2301 13.3375 8.3117 13.3395 8.39452C13.3416 8.47735 13.3271 8.55975 13.297 8.63695C13.2669 8.71414 13.2218 8.78458 13.1642 8.84417L10.0392 12.1775C9.98089 12.24 9.91031 12.2897 9.83188 12.3237C9.75346 12.3577 9.66888 12.3751 9.58341 12.375Z" fill="white"/>
</g>
</g>
</g>
</svg>
