<svg width="20" height="21" viewBox="0 0 20 21" fill="none" xmlns="http://www.w3.org/2000/svg">
<g id="Frame" clip-path="url(#clip0_337_307)">
<path id="Vector" fill-rule="evenodd" clip-rule="evenodd" d="M15.5463 19.5799C15.3882 19.5798 15.2325 19.5412 15.0926 19.4674L9.98008 16.7799L4.86758 19.4674C4.70664 19.5514 4.52544 19.5888 4.34438 19.5754C4.16332 19.562 3.98959 19.4983 3.84277 19.3915C3.69595 19.2847 3.58187 19.1391 3.51337 18.9709C3.44488 18.8028 3.42469 18.6189 3.45508 18.4399L4.43008 12.7474L0.293831 8.71611C0.163699 8.58905 0.0717042 8.42811 0.0282438 8.2515C-0.0152166 8.07489 -0.00840953 7.88964 0.0478956 7.71669C0.104201 7.54374 0.207759 7.39 0.346866 7.27282C0.485973 7.15564 0.655083 7.07972 0.835081 7.05361L6.55008 6.22236L9.10633 1.04361C9.18684 0.880442 9.31139 0.743051 9.46591 0.646983C9.62043 0.550914 9.79876 0.5 9.98071 0.5C10.1627 0.5 10.341 0.550914 10.4955 0.646983C10.65 0.743051 10.7746 0.880442 10.8551 1.04361L13.4113 6.22236L19.1263 7.05361C19.3062 7.07991 19.4752 7.15598 19.6141 7.27323C19.7531 7.39048 19.8565 7.54425 19.9126 7.71716C19.9688 7.89008 19.9755 8.07525 19.932 8.25177C19.8885 8.42829 19.7964 8.58913 19.6663 8.71611L15.5313 12.7474L16.5063 18.4399C16.5303 18.5797 16.5235 18.7232 16.4864 18.8602C16.4492 18.9971 16.3826 19.1243 16.2912 19.2329C16.1998 19.3415 16.0857 19.4288 15.9571 19.4887C15.8284 19.5486 15.6883 19.5797 15.5463 19.5799ZM9.98008 14.7049C10.1363 14.7049 10.2926 14.7424 10.4338 14.8161L14.2526 16.8236L13.5226 12.5724C13.496 12.4166 13.5078 12.2567 13.5568 12.1064C13.6058 11.9562 13.6906 11.8201 13.8038 11.7099L16.8913 8.69736L12.6238 8.07862C12.4674 8.05579 12.3189 7.99528 12.1911 7.90229C12.0633 7.80931 11.96 7.68665 11.8901 7.54486L9.98008 3.67736L8.07133 7.54486C8.00145 7.68665 7.89815 7.80931 7.77033 7.90229C7.6425 7.99528 7.49399 8.05579 7.33758 8.07862L3.06883 8.69862L6.15758 11.7086C6.27085 11.8188 6.35564 11.9549 6.40463 12.1052C6.45363 12.2554 6.46536 12.4153 6.43883 12.5711L5.70883 16.8236L9.52758 14.8161C9.6671 14.7426 9.82237 14.704 9.98008 14.7036V14.7049Z" fill="white"/>
</g>
<defs>
<clipPath id="clip0_337_307">
<rect width="20" height="20" fill="white" transform="translate(0 0.5)"/>
</clipPath>
</defs>
</svg>
