<svg width="16" height="16" viewBox="0 0 16 16" fill="none" xmlns="http://www.w3.org/2000/svg">
<g clip-path="url(#clip0_231_3108)">
<path d="M6.4395 12.8735C7.86959 12.8735 9.2588 12.3964 10.387 11.5176L14.6436 15.7741C14.9615 16.0812 15.4682 16.0724 15.7753 15.7544C16.0749 15.4442 16.0749 14.9525 15.7753 14.6424L11.5188 10.3858C13.6994 7.57881 13.1916 3.53555 10.3846 1.35494C7.57755 -0.825662 3.53432 -0.317874 1.35372 2.48915C-0.826884 5.29618 -0.319097 9.33945 2.48793 11.52C3.61802 12.398 5.00847 12.8742 6.4395 12.8735ZM3.01943 3.01819C4.9083 1.12929 7.97076 1.12925 9.85967 3.01812C11.7486 4.90699 11.7486 7.96946 9.85974 9.85836C7.97087 11.7473 4.9084 11.7473 3.0195 9.85843L3.01943 9.85836C1.13056 7.98325 1.11943 4.93195 2.99454 3.04308L3.01943 3.01819Z" fill="#CE9C2E"/>
</g>
<defs>
<clipPath id="clip0_231_3108">
<rect width="16" height="16" fill="white"/>
</clipPath>
</defs>
</svg>
