<svg width="21" height="21" viewBox="0 0 21 21" fill="none" xmlns="http://www.w3.org/2000/svg">
<g id="Frame">
<g id="Group">
<path id="Vector" d="M12.6961 6.10326C13.3105 6.74594 14.1762 7.1471 15.134 7.1471C16.9943 7.1471 18.5076 5.63385 18.5076 3.77347C18.5076 1.91332 16.9943 0.40004 15.134 0.40004C13.2736 0.40004 11.7604 1.91332 11.7604 3.77349C11.7603 4.1643 11.8284 4.5519 11.9615 4.9189L6.71178 8.17042C6.09735 7.52759 5.23157 7.12639 4.27387 7.12639C2.41353 7.12639 0.900244 8.63972 0.900244 10.5C0.900244 12.3602 2.41353 13.8736 4.27387 13.8736C5.23162 13.8736 6.09732 13.4723 6.71177 12.8296L11.9615 16.0811C11.8284 16.4481 11.7603 16.8356 11.7604 17.2264L12.6961 6.10326ZM12.6961 6.10326L7.44621 9.35474M12.6961 6.10326L7.44621 9.35474M7.44621 9.35474C7.57933 9.72169 7.64745 10.1093 7.6473 10.5001L7.5473 10.5C7.54749 10.9062 7.47162 11.3088 7.32363 11.687M7.44621 9.35474L7.6473 10.5C7.64748 10.8908 7.57935 11.2784 7.44621 11.6453M7.32363 11.687L7.37629 11.602L7.44621 11.6453M7.32363 11.687L7.41676 11.7234C7.4269 11.6975 7.43672 11.6715 7.44621 11.6453M7.32363 11.687L7.44621 11.6453M7.44621 11.6453L12.6961 14.8969M7.44621 11.6453L12.6961 14.8969M12.6961 14.8969C13.3105 14.2543 14.1762 13.8529 15.134 13.8529C16.9943 13.8529 18.5076 15.3662 18.5076 17.2265C18.5076 19.0869 16.9943 20.6 15.134 20.6C13.2737 20.6 11.7604 19.0867 11.7604 17.2264L12.6961 14.8969ZM15.134 5.75358C14.0424 5.75358 13.1541 4.86529 13.154 3.77367L15.134 5.75358ZM15.134 5.75358C16.2256 5.75358 17.1139 4.86527 17.1139 3.77367M15.134 5.75358L17.1139 3.77367M17.1139 3.77367C17.1139 2.68202 16.2256 1.79375 15.134 1.79375M17.1139 3.77367L15.134 1.79375M15.134 1.79375C14.0423 1.79375 13.1541 2.682 13.154 3.77363L15.134 1.79375ZM13.154 17.2264C13.154 18.318 14.0424 19.2063 15.134 19.2063C16.2256 19.2063 17.1139 18.318 17.1139 17.2264C17.1139 16.1347 16.2256 15.2465 15.134 15.2465C14.0423 15.2465 13.154 16.1348 13.154 17.2264ZM4.27387 8.5201C3.18207 8.5201 2.2938 9.40842 2.2938 10.5C2.2938 11.5916 3.18207 12.4799 4.27387 12.4799C5.3655 12.4799 6.25363 11.5916 6.25363 10.5C6.25363 9.40841 5.36547 8.5201 4.27387 8.5201Z" fill="white" stroke="white" stroke-width="0.2"/>
</g>
</g>
</svg>
