<svg width="28" height="23" viewBox="0 0 28 23" fill="none" xmlns="http://www.w3.org/2000/svg">
<g clip-path="url(#clip0_204_745)">
<path d="M24.0234 6.90528H18.4395V4.11072C18.4395 1.87482 16.6557 0.0557632 14.4629 0.0557632H3.9766C1.78391 0.0557632 0 1.87488 0 4.11072V8.87122C0 11.0766 1.73523 12.8763 3.88686 12.9253C3.87253 13.3877 3.82195 13.9029 3.73537 14.4641C3.67686 14.8429 3.81511 15.2152 4.10479 15.46C4.29915 15.6243 4.53605 15.7096 4.7781 15.7096C4.89858 15.7096 5.02037 15.6883 5.13893 15.6452C5.9272 15.3578 7.29843 14.6311 8.00554 12.9262H11.9464V15.721C11.9464 17.9568 13.7304 19.7759 15.923 19.7759H19.9945C20.7018 21.4809 22.0728 22.2073 22.8613 22.4949C22.977 22.5373 23.099 22.559 23.2219 22.5592C23.4639 22.5592 23.7009 22.4738 23.8952 22.3095C24.1851 22.0649 24.3231 21.6924 24.2646 21.3136C24.1781 20.7527 24.1274 20.2373 24.1131 19.7748C26.2648 19.726 28 17.9263 28 15.721V10.9605C28 8.72439 26.216 6.90528 24.0234 6.90528ZM26.9062 15.7207C26.9062 17.3418 25.613 18.6606 24.0234 18.6606H23.5673C23.4258 18.6606 23.2899 18.7166 23.188 18.8166C23.0861 18.9167 23.0262 19.0532 23.0209 19.1974C22.9972 19.8413 23.0489 20.5901 23.1747 21.4243C22.3785 21.1217 21.3574 20.4643 20.8906 19.0414C20.8543 18.9305 20.7846 18.8341 20.6916 18.7658C20.5986 18.6974 20.4868 18.6607 20.3722 18.6606H15.923C14.3335 18.6606 13.0402 17.3418 13.0402 15.7207V10.9602C13.0402 10.4603 13.1654 9.96673 13.402 9.53298C13.437 9.469 13.4592 9.39862 13.4675 9.32587C13.4758 9.25312 13.4699 9.17942 13.4502 9.10898C13.4305 9.03854 13.3974 8.97275 13.3528 8.91537C13.3082 8.85798 13.2529 8.81012 13.1901 8.77452C12.9263 8.62463 12.5933 8.72155 12.4463 8.99061C12.1193 9.58986 11.9465 10.2708 11.9465 10.9602V11.8109H7.62781C7.51312 11.8109 7.40134 11.8476 7.30826 11.916C7.21519 11.9843 7.14554 12.0807 7.10916 12.1916C6.64262 13.6145 5.62149 14.2722 4.8253 14.5745C4.95091 13.7404 5.00265 12.9915 4.97913 12.3476C4.97381 12.2034 4.91389 12.0669 4.81195 11.9668C4.71001 11.8667 4.57399 11.8108 4.43248 11.8109H3.9766C2.387 11.8109 1.09375 10.4921 1.09375 8.87122V4.11072C1.09375 2.4898 2.387 1.17106 3.9766 1.17106H14.4629C16.0525 1.17106 17.3458 2.4898 17.3458 4.11072V6.9055H16.5703C16.2683 6.9055 16.0234 7.15516 16.0234 7.46315C16.0234 7.77114 16.2683 8.0208 16.5703 8.0208H24.0234C25.613 8.0208 26.9062 9.33953 26.9062 10.9605V15.7207Z" fill="#E7B133"/>
<g clip-path="url(#clip1_204_745)">
<path d="M4.8773 8.72155C5.60429 8.49335 6.28179 8.19004 6.92834 7.83763C7.02425 8.46735 7.16964 9.08263 7.37382 9.69213C7.31814 9.86256 7.43879 10.1023 7.6708 10.111C8.42564 10.137 9.17738 10.1659 9.93221 10.1919C10.025 10.2034 10.1178 10.2121 10.2137 10.2179C10.2601 10.2207 10.3498 10.2179 10.4612 10.2121C10.5231 10.215 10.5881 10.2179 10.6499 10.2179C11.3522 10.2439 12.3978 10.4721 13.0567 10.2352C13.2609 10.163 13.3444 9.98099 13.2485 9.79612C12.9701 9.25883 11.742 9.57081 11.2501 9.58814C10.3932 9.61702 9.76206 9.59392 9.30422 8.77065C8.97011 8.1756 8.85565 7.25701 8.84018 6.60129C9.15572 6.36731 9.47127 6.13044 9.78063 5.88202C11.1789 4.7699 12.701 3.62022 13.0567 1.84949C13.1031 1.62417 12.9144 1.42775 12.6638 1.48263C11.9338 1.63862 11.216 1.7195 10.4674 1.73394C10.3003 1.73683 10.1364 1.86971 10.1457 2.03436C10.1952 2.83451 10.3251 3.05116 9.61976 3.48445C9.35371 3.64911 9.01342 3.75021 8.7319 3.90042C7.84404 4.36838 7.03043 4.95766 6.2756 5.59027C4.51535 7.06636 3.06137 8.82554 1.38155 10.3767C1.08766 10.6483 1.53933 11.07 1.83631 10.8014C4.5865 8.26226 6.8541 5.0241 10.6406 3.75021C10.7675 3.70688 10.885 3.6 10.8758 3.46134C10.851 3.08005 10.8294 2.69875 10.8046 2.31745C11.3119 2.29434 11.81 2.24234 12.3081 2.15857C11.8193 3.55956 10.5076 4.52147 9.32896 5.46028C7.8657 6.6244 6.35294 7.67297 4.49988 8.21315C4.33592 8.26226 4.27096 8.38935 4.27715 8.51645C4.26787 8.53667 4.26168 8.5569 4.25858 8.58289C4.14722 9.16351 4.03585 9.77879 3.58728 10.2207C3.30576 10.5009 3.75742 10.9256 4.04203 10.6454C4.57413 10.1196 4.74737 9.43504 4.88039 8.74177C4.8773 8.7331 4.8773 8.72733 4.8773 8.72155ZM8.90514 9.55636C8.76284 9.55059 8.61744 9.54481 8.47514 9.54192C8.42564 9.50437 8.36377 9.47548 8.28333 9.47548C8.1565 9.47548 8.06369 9.47548 7.97707 9.48126C7.77289 8.86598 7.61821 8.23915 7.53469 7.59787C7.53159 7.56321 7.51922 7.53432 7.50684 7.50543C7.75124 7.35811 7.98944 7.20213 8.22456 7.04036C8.27405 7.85207 8.44729 8.88909 8.90514 9.55636Z" fill="#E7B133"/>
</g>
<path d="M19.9521 10.395C19.8501 10.239 19.7991 10.065 19.7991 9.873C19.7991 9.627 19.8741 9.426 20.0241 9.27C20.1741 9.108 20.3661 9.027 20.6001 9.027C20.7681 9.027 20.9361 9.054 21.1041 9.108V9.585C20.9541 9.549 20.8401 9.531 20.7621 9.531C20.5041 9.531 20.3751 9.675 20.3751 9.963C20.3751 10.083 20.4051 10.176 20.4651 10.242C20.5371 10.344 20.6451 10.395 20.7891 10.395H21.3921V10.62L21.1851 10.872H19.5921V10.395H19.9521ZM21.0501 11.556V17.775L20.4921 18.225H19.9521V11.556H21.0501Z" fill="#E7B133"/>
</g>
<defs>
<clipPath id="clip0_204_745">
<rect width="28" height="23" fill="white"/>
</clipPath>
<clipPath id="clip1_204_745">
<rect width="16" height="10" fill="white" transform="translate(2 1)"/>
</clipPath>
</defs>
</svg>
